<?xml version="1.0" encoding="UTF-8" standalone="no"?>
<svg
   width="349.751"
   height="316"
   version="1.1"
   id="svg49"
   sodipodi:docname="favicon.svg"
   inkscape:version="1.2 (1:1.2.1+202207142221+cd75a1ee6d)"
   xmlns:inkscape="http://www.inkscape.org/namespaces/inkscape"
   xmlns:sodipodi="http://sodipodi.sourceforge.net/DTD/sodipodi-0.dtd"
   xmlns="http://www.w3.org/2000/svg"
   xmlns:svg="http://www.w3.org/2000/svg">
  <defs
     id="defs53" />
  <sodipodi:namedview
     id="namedview51"
     pagecolor="#ffffff"
     bordercolor="#000000"
     borderopacity="0.25"
     inkscape:showpageshadow="2"
     inkscape:pageopacity="0.0"
     inkscape:pagecheckerboard="0"
     inkscape:deskcolor="#d1d1d1"
     showgrid="false"
     inkscape:zoom="2.4936709"
     inkscape:cx="77.596447"
     inkscape:cy="158.20051"
     inkscape:window-width="1920"
     inkscape:window-height="1016"
     inkscape:window-x="0"
     inkscape:window-y="0"
     inkscape:window-maximized="1"
     inkscape:current-layer="svg49" />
  <svg
     version="1.1"
     width="349.751"
     height="316"
     style="clip-rule:evenodd;fill-rule:evenodd;image-rendering:optimizeQuality;shape-rendering:geometricPrecision;text-rendering:geometricPrecision"
     id="SvgjsSvg1046">
    <g
       id="SvgjsG1043"
       transform="translate(-920.438 .5)">
      <path
         style="opacity:.975"
         fill="#1e90ff"
         d="M1081.5-.5h27c57.73 10.899 92.57 45.232 104.5 103 6.59 49.559-9.24 90.392-47.5 122.5-28.18 20.543-59.52 27.543-94 21-48.8-12.798-79.631-43.631-92.5-92.5-9.985-50.375 3.848-92.875 41.5-127.5 18.01-14.343 38.34-23.176 61-26.5zm31 8c.24-.597.74-.93 1.5-1a98.14 98.14 0 0 1 17.5 5.5c-.62 1.757-1.79 2.924-3.5 3.5a342.585 342.585 0 0 0-15.5-8zm-37 0c-3.73 3.213-7.9 5.88-12.5 8-1.77-.77-3.27-1.937-4.5-3.5 5.34-2.586 11.01-4.086 17-4.5zm8 3c1.03.397 1.19 1.063.5 2a222.167 222.167 0 0 0-8.5 11.5c-2.64-.493-4.97-1.827-7-4 5.06-3.191 10.06-6.358 15-9.5zm23 1a73.629 73.629 0 0 1 16 8.5c-2.29 2.34-4.96 3.673-8 4-2.89-4.05-5.56-8.217-8-12.5zm-8 1a98.86 98.86 0 0 1 10 13.5 32.345 32.345 0 0 1-9.5 3.5 143.97 143.97 0 0 1-.5-17zm-47 1c2.12 1.56 3.79 3.56 5 6a89.088 89.088 0 0 1-14 13.5c2.58 1.25 5.24 1.584 8 1a165.42 165.42 0 0 1 12-9.5 106.87 106.87 0 0 0 8.5 5c-.93 4.891-2.77 9.558-5.5 14 1.05 1.612 2.55 2.612 4.5 3 2.95-4.386 5.78-8.886 8.5-13.5 4.23.673 8.57 1.173 13 1.5.88 6.623 1.21 13.29 1 20-5.01-.166-10.01 0-15 .5 1 2.333 2.67 4 5 5 3.32.498 6.65.665 10 .5v37c1.97.24 3.8-.094 5.5-1 .5-2.31.66-4.643.5-7a450 450 0 0 0 21-2.5c5.81-2.595 5.98-4.429.5-5.5-7.16.833-14.32 1.5-21.5 2v-23c8.37-.887 16.7-1.72 25-2.5a78.78 78.78 0 0 1 6.5 17.5c2.48 2.625 4.31 2.125 5.5-1.5a625.318 625.318 0 0 1-5-19.5 272.916 272.916 0 0 0 20-7.5 137.2 137.2 0 0 1 13 20.5 47.422 47.422 0 0 1-8 4.5 34.01 34.01 0 0 0 8 2.5c.67-.333 1.33-.667 2-1 8.53 8.268 10.53 7.434 6-2.5a215.51 215.51 0 0 0 17-10c1.28-.684 2.45-.517 3.5.5 24.82 46.482 22.49 91.482-7 135a280.127 280.127 0 0 1-19.5 20.5c-6.93-1.919-11.76-6.419-14.5-13.5-1.55-4.178-1.72-8.344-.5-12.5 23.75-1.758 40.25-13.592 49.5-35.5 8.25-35-3.92-59.834-36.5-74.5-10.23-2.457-20.23-1.79-30 2a296.245 296.245 0 0 0-22 19 49.578 49.578 0 0 1-18 4.5c-1.67.333-2.67 1.333-3 3a54.283 54.283 0 0 1 2 7c-.33 1.667-1.33 2.667-3 3a36.433 36.433 0 0 0-2.5 8c-1.33.667-2.67 1.333-4 2a95.212 95.212 0 0 1-5.5 16.5c.39 3.177 1.56 6.01 3.5 8.5 6.67 4 12 9.333 16 16 2.1 10.277 3.44 20.61 4 31a17.853 17.853 0 0 1-5.5 4.5 257.38 257.38 0 0 0-18 4c-10.34 3.67-20.68 7.337-31 11-5.33.667-10.67.667-16 0a59.138 59.138 0 0 1-12.5-10.5c-.4-3.816.27-7.483 2-11 2.41-2.124 4.91-1.957 7.5.5 11.89 1.039 23.56-.128 35-3.5 17 5.002 24.67-1.331 23-19a16.874 16.874 0 0 0-8-1v-3c-2.69-.164-5.35.003-8 .5-2.98 3.157-6.65 4.657-11 4.5a62.701 62.701 0 0 1-18-3.5c-.83-.833-1.67-1.667-2.5-2.5a568.993 568.993 0 0 0-6.5-43.5c.5-3.167 2.33-5 5.5-5.5 6.75 2.761 13.59 3.261 20.5 1.5 2.2-2.54 4.7-4.707 7.5-6.5a20.573 20.573 0 0 0 3-8l3-2c.33-4 .67-8 1-12 13.24-20.752 9.41-37.585-11.5-50.5-19.49-12.062-36.66-9.562-51.5 7.5-4.88 8.74-6.55 18.074-5 28 .62 5.038 1.45 10.038 2.5 15-.4 1.697-.9 3.363-1.5 5l-23 18c2.885-48.8 26.05-84.134 69.5-106zm39 0c1.3 1.897 1.97 4.23 2 7 .07 3.125-.43 6.125-1.5 9-3.1-.955-6.27-1.789-9.5-2.5a313.43 313.43 0 0 0 9-13.5zm47 1a69.48 69.48 0 0 1 22 11.5c1.83 1.113 2.66 2.613 2.5 4.5-2.83 2.167-5.67 4.333-8.5 6.5-1 .667-2 .667-3 0a96.367 96.367 0 0 0-16.5-16.5c-.67-.667-.67-1.333 0-2a19.505 19.505 0 0 0 3.5-4zm-11 10c7.11 3.589 13.28 8.589 18.5 15 .67.667.67 1.333 0 2a98.855 98.855 0 0 1-17 8 139.861 139.861 0 0 1-9.5-19c2.7-2.009 5.36-4.009 8-6zm-16 8c1-.086 1.83.248 2.5 1a419.506 419.506 0 0 1 8.5 17.5 91.493 91.493 0 0 1-23 3.5v-20c4.26.156 8.26-.51 12-2zm57 1c3.92 2.416 7.42 5.415 10.5 9 3.17 3.833 6.33 7.667 9.5 11.5a93.063 93.063 0 0 1-17.5 10.5c-4.99-6.63-9.49-13.63-13.5-21 3.69-3.355 7.35-6.689 11-10z"
         id="SvgjsPath1042" />
    </g>
    <g
       id="SvgjsG1041"
       transform="translate(-920.438 .5)">
      <path
         style="opacity:.937"
         fill="#1e90ff"
         d="M965.5 30.5c.997-.03 1.664.47 2 1.5-2.021 19.277-9.688 35.778-23 49.5-3.339-12.29-1.172-23.623 6.5-34a342.61 342.61 0 0 0 14.5-17z"
         id="SvgjsPath1040" />
    </g>
    <g
       id="SvgjsG1039"
       transform="translate(-920.438 .5)">
      <path
         style="opacity:.942"
         fill="#1e90ff"
         d="M1223.5 31.5c1.42.209 2.76.709 4 1.5 7.33 7.66 13.49 16.16 18.5 25.5a87.548 87.548 0 0 1 2.5 15c.11 2.888-.55 5.555-2 8-7.22-6.74-12.72-14.74-16.5-24a123.66 123.66 0 0 1-6.5-26z"
         id="SvgjsPath1038" />
    </g>
    <g
       id="SvgjsG1037"
       transform="translate(-920.438 .5)">
      <path
         style="opacity:.943"
         fill="#1e90ff"
         d="M975.5 58.5c.997-.03 1.664.47 2 1.5-5.834 18.854-15.834 35.02-30 48.5-2.084-16.67 3.249-30.503 16-41.5a128.137 128.137 0 0 1 12-8.5z"
         id="SvgjsPath1036" />
    </g>
    <g
       id="SvgjsG1035"
       transform="translate(-920.438 .5)">
      <path
         style="opacity:.938"
         fill="#1e90ff"
         d="M1214.5 57.5c15.83 7.995 25.67 20.662 29.5 38 .93 4.52.6 8.854-1 13-14.17-14.334-23.67-31.334-28.5-51z"
         id="SvgjsPath1034" />
    </g>
    <g
       id="SvgjsG1033"
       transform="translate(-920.438 .5)">
      <path
         style="opacity:.935"
         fill="#1e90ff"
         d="M1256.5 62.5c1.09.12 1.75.787 2 2 5.92 17.893 6.42 35.893 1.5 54-1.85 5.054-4.69 9.388-8.5 13-2.53-17.646-2.36-35.313.5-53 1.19-5.447 2.69-10.78 4.5-16z"
         id="SvgjsPath1032" />
    </g>
    <g
       id="SvgjsG1031"
       transform="translate(-920.438 .5)">
      <path
         style="opacity:.939"
         fill="#1e90ff"
         d="M932.5 63.5c2.276.257 3.443 1.59 3.5 4 5.426 20.405 6.759 41.071 4 62a3.647 3.647 0 0 1-1.5 1c-4.087-3.83-6.921-8.497-8.5-14-4.589-17.887-3.755-35.554 2.5-53z"
         id="SvgjsPath1030" />
    </g>
    <g
       id="SvgjsG1029"
       transform="translate(-920.438 .5)">
      <path
         style="opacity:.946"
         fill="#1e90ff"
         d="M964.5 96.5c1.265 1.014 1.931 2.514 2 4.5-1.679 18.703-7.179 36.203-16.5 52.5a7.248 7.248 0 0 1-2.5 2c-1.306-1.412-2.14-3.079-2.5-5-2.422-13.588-.089-26.255 7-38 4-5.495 8.166-10.829 12.5-16z"
         id="SvgjsPath1028" />
    </g>
    <g
       id="SvgjsG1027"
       transform="translate(-920.438 .5)">
      <path
         style="opacity:.945"
         fill="#1e90ff"
         d="M1224.5 96.5c17.05 13.453 24.21 31.12 21.5 53-.25 2.677-1.25 5.01-3 7-11.5-18.324-17.66-38.324-18.5-60z"
         id="SvgjsPath1026" />
    </g>
    <g
       id="SvgjsG1025"
       transform="translate(-920.438 .5)">
      <path
         style="opacity:.948"
         fill="#1e90ff"
         d="M920.5 113.5c3.615 1.521 6.115 4.187 7.5 8a182.76 182.76 0 0 1 19 49c.821 3.054.655 6.054-.5 9-16.026-11.044-24.526-26.377-25.5-46-.5-6.658-.666-13.325-.5-20z"
         id="SvgjsPath1024" />
    </g>
    <g
       id="SvgjsG1023"
       transform="translate(-920.438 .5)">
      <path
         style="opacity:.95"
         fill="#1e90ff"
         d="M1268.5 113.5c4.15 19.179.65 37.179-10.5 54a76.288 76.288 0 0 1-13.5 12c-1.15-2.946-1.32-5.946-.5-9 4.59-20.613 12.75-39.613 24.5-57z"
         id="SvgjsPath1022" />
    </g>
    <g
       id="SvgjsG1021"
       transform="translate(-920.438 .5)">
      <path
         style="opacity:.946"
         fill="#1e90ff"
         d="M1224.5 132.5c15.39 20.005 17.56 41.339 6.5 64a7.239 7.239 0 0 1-2.5 2c-2.42-4.324-3.92-8.991-4.5-14-3.43-17.436-3.26-34.769.5-52z"
         id="SvgjsPath1020" />
    </g>
    <g
       id="SvgjsG1019"
       transform="translate(-920.438 .5)">
      <path
         style="opacity:.951"
         fill="#1e90ff"
         d="M965.5 133.5c1.466.847 2.3 2.18 2.5 4a177.206 177.206 0 0 1-1 46 48.503 48.503 0 0 1-5 16c-10.253-14.886-12.253-30.886-6-48 2.4-6.47 5.567-12.47 9.5-18z"
         id="SvgjsPath1018" />
    </g>
    <g
       id="SvgjsG1017"
       transform="translate(-920.438 .5)">
      <path
         style="opacity:.949"
         fill="#1e91ff"
         d="M924.5 169.5c3.524.429 6.524 1.929 9 4.5 16.232 14.888 29.398 32.055 39.5 51.5.781 1.444.614 2.777-.5 4-26.446-11.518-42.446-31.518-48-60z"
         id="SvgjsPath1016" />
    </g>
    <g
       id="SvgjsG1015"
       transform="translate(-920.438 .5)">
      <path
         style="opacity:.952"
         fill="#1e90ff"
         d="M1262.5 169.5c1.48-.262 2.81.071 4 1-5.15 22.611-17.15 40.444-36 53.5-4.47 2.883-9.14 4.383-14 4.5 5.97-14.125 14.13-26.792 24.5-38a632.86 632.86 0 0 1 21.5-21z"
         id="SvgjsPath1014" />
    </g>
    <g
       id="SvgjsG1013"
       transform="translate(-920.438 .5)">
      <path
         style="opacity:.96"
         fill="#1e90ff"
         d="M974.5 172.5c1.951 1.216 3.451 2.882 4.5 5 9.418 19.334 14.251 39.668 14.5 61-10.98-5.959-18.147-14.959-21.5-27-2.521-13.263-1.688-26.263 2.5-39z"
         id="SvgjsPath1012" />
    </g>
    <g
       id="SvgjsG1011"
       transform="translate(-920.438 .5)">
      <path
         style="opacity:.952"
         fill="#1e90ff"
         d="M1214.5 172.5c1.25.077 2.08.744 2.5 2 5.77 17.299 4.43 33.965-4 50-4.07 5.904-9.24 10.571-15.5 14 .02-23.417 5.69-45.417 17-66z"
         id="SvgjsPath1010" />
    </g>
    <g
       id="SvgjsG1009"
       transform="translate(-920.438 .5)">
      <path
         style="opacity:.963"
         fill="#1e90ff"
         d="M995.5 213.5a8.43 8.43 0 0 1 4 .5 236.144 236.144 0 0 1 37.5 35.5c2.32 2.98 3.82 6.313 4.5 10-19.29 2.602-32.79-5.065-40.5-23a115.565 115.565 0 0 1-5.5-23z"
         id="SvgjsPath1008" />
    </g>
    <g
       id="SvgjsG1007"
       transform="translate(-920.438 .5)">
      <path
         style="opacity:.961"
         fill="#1e90ff"
         d="M1191.5 213.5h3c-.24 15.307-5.58 28.473-16 39.5-8.81 6.024-18.48 8.19-29 6.5.56-5.12 2.73-9.454 6.5-13 11.13-11.968 22.96-22.968 35.5-33z"
         id="SvgjsPath1006" />
    </g>
    <g
       id="SvgjsG1005"
       transform="translate(-920.438 .5)">
      <path
         style="opacity:.956"
         fill="#1e90ff"
         d="M947.5 224.5c13.235 2.949 25.568 8.116 37 15.5 10.5 5.501 19.5 12.834 27 22-20.44 4.52-37.606-.98-51.5-16.5-5.215-6.438-9.382-13.438-12.5-21z"
         id="SvgjsPath1004" />
    </g>
    <g
       id="SvgjsG1003"
       transform="translate(-920.438 .5)">
      <path
         style="opacity:.955"
         fill="#1e90ff"
         d="M1239.5 224.5h4c-5.34 12.823-13.67 23.323-25 31.5-11.77 7.018-24.44 9.184-38 6.5 1.62-4.142 4.29-7.642 8-10.5 15.92-11.293 32.92-20.46 51-27.5z"
         id="SvgjsPath1002" />
    </g>
    <g
       id="SvgjsG1001"
       transform="translate(-920.438 .5)">
      <path
         style="opacity:.949"
         fill="#1e90ff"
         d="M1035.5 263.5c20.61-.898 40.61 2.102 60 9 34.11-11.324 68.45-11.824 103-1.5 1.33 1 1.33 2 0 3-21.83 9.225-44.16 10.892-67 5l-9-7c-6.34.22-12.34 1.887-18 5 14.39 8.553 26.39 19.72 36 33.5-2.33 3.622-5.33 4.788-9 3.5-10.31-12.811-22.31-23.644-36-32.5-13.69 8.856-25.69 19.689-36 32.5l-3 1.5a18.73 18.73 0 0 1-7-5.5c10.56-13.093 22.89-24.093 37-33a69.247 69.247 0 0 0-16.5-5.5 57.414 57.414 0 0 0-10.5 7.5 35.637 35.637 0 0 1-9 3c-21.05 2.954-41.05-.213-60-9.5a90.49 90.49 0 0 1 18-5.5 275.86 275.86 0 0 1 27-3.5z"
         id="SvgjsPath1000" />
    </g>
  </svg>
  <style
     id="style47">@media (prefers-color-scheme:light){:root{filter:none}}</style>
</svg>
