<?xml version="1.0" encoding="UTF-8" standalone="no"?>
<svg
   version="1.1"
   width="1261.6885"
   height="316"
   style="clip-rule:evenodd;fill-rule:evenodd;image-rendering:optimizeQuality;shape-rendering:geometricPrecision;text-rendering:geometricPrecision"
   id="svg118"
   sodipodi:docname="AAAAA.svg"
   inkscape:version="1.2 (1:1.2.1+202207142221+cd75a1ee6d)"
   xmlns:inkscape="http://www.inkscape.org/namespaces/inkscape"
   xmlns:sodipodi="http://sodipodi.sourceforge.net/DTD/sodipodi-0.dtd"
   xmlns="http://www.w3.org/2000/svg"
   xmlns:svg="http://www.w3.org/2000/svg">
  <defs
     id="defs122" />
  <sodipodi:namedview
     id="namedview120"
     pagecolor="#ffffff"
     bordercolor="#000000"
     borderopacity="0.25"
     inkscape:showpageshadow="2"
     inkscape:pageopacity="0.0"
     inkscape:pagecheckerboard="0"
     inkscape:deskcolor="#d1d1d1"
     showgrid="false"
     inkscape:zoom="1.1671875"
     inkscape:cx="-364.12316"
     inkscape:cy="162.35609"
     inkscape:window-width="1920"
     inkscape:window-height="1016"
     inkscape:window-x="0"
     inkscape:window-y="0"
     inkscape:window-maximized="1"
     inkscape:current-layer="svg118" />
  <g
     id="g4"
     transform="translate(-8.5,0.5)">
    <path
       style="opacity:0.975"
       fill="#1e90ff"
       d="m 1081.5,-0.5 c 9,0 18,0 27,0 57.73,10.899 92.57,45.2324 104.5,103 6.59,49.559 -9.24,90.392 -47.5,122.5 -28.18,20.543 -59.52,27.543 -94,21 -48.8,-12.798 -79.631,-43.631 -92.5,-92.5 -9.985,-50.375 3.848,-92.8754 41.5,-127.5 18.01,-14.3428 38.34,-23.17613 61,-26.5 z m 31,8 c 0.24,-0.59674 0.74,-0.93007 1.5,-1 6.05,1.30215 11.89,3.13549 17.5,5.5 -0.62,1.7571 -1.79,2.9238 -3.5,3.5 -5.13,-2.8126 -10.29,-5.4793 -15.5,-8 z m -37,0 c -3.73,3.2134 -7.9,5.8801 -12.5,8 -1.77,-0.7703 -3.27,-1.937 -4.5,-3.5 5.34,-2.58578 11.01,-4.08578 17,-4.5 z m 8,3 c 1.03,0.3966 1.19,1.0632 0.5,2 -2.96,3.7443 -5.79,7.5776 -8.5,11.5 -2.64,-0.4933 -4.97,-1.8266 -7,-4 5.06,-3.1913 10.06,-6.3579 15,-9.5 z m 23,1 c 5.68,2.172 11.01,5.0054 16,8.5 -2.29,2.3397 -4.96,3.6731 -8,4 -2.89,-4.0502 -5.56,-8.2168 -8,-12.5 z m -8,1 c 3.68,4.1649 7.01,8.6649 10,13.5 -2.98,1.663 -6.14,2.8297 -9.5,3.5 -0.5,-5.6569 -0.67,-11.3236 -0.5,-17 z m -47,1 c 2.12,1.5592 3.79,3.5592 5,6 -4.18,5.0183 -8.85,9.5183 -14,13.5 2.58,1.2504 5.24,1.5837 8,1 3.86,-3.357 7.86,-6.5237 12,-9.5 2.75,1.7927 5.58,3.4594 8.5,5 -0.93,4.8911 -2.77,9.5577 -5.5,14 1.05,1.6123 2.55,2.6123 4.5,3 2.95,-4.3865 5.78,-8.8865 8.5,-13.5 4.23,0.6733 8.57,1.1733 13,1.5 0.88,6.6228 1.21,13.2895 1,20 -5.01,-0.1659 -10.01,7e-4 -15,0.5 1,2.3333 2.67,4 5,5 3.32,0.4983 6.65,0.665 10,0.5 0,12.3333 0,24.6667 0,37 1.97,0.2394 3.8,-0.0939 5.5,-1 0.5,-2.3098 0.66,-4.6432 0.5,-7 7.01,-0.6677 14.01,-1.501 21,-2.5 5.81,-2.5953 5.98,-4.4286 0.5,-5.5 -7.16,0.8325 -14.32,1.4991 -21.5,2 0,-7.6667 0,-15.3333 0,-23 8.37,-0.8872 16.7,-1.7205 25,-2.5 2.85,5.5526 5.02,11.3859 6.5,17.5 2.48,2.6253 4.31,2.1253 5.5,-1.5 -1.78,-6.4941 -3.44,-12.9941 -5,-19.5 6.85,-2.2717 13.52,-4.7717 20,-7.5 4.93,6.4324 9.26,13.2657 13,20.5 -2.54,1.7674 -5.2,3.2674 -8,4.5 2.52,1.1485 5.18,1.9818 8,2.5 0.67,-0.3333 1.33,-0.6667 2,-1 8.53,8.2675 10.53,7.4342 6,-2.5 5.83,-3.0812 11.5,-6.4145 17,-10 1.28,-0.6838 2.45,-0.5171 3.5,0.5 24.82,46.482 22.49,91.482 -7,135 -6.13,7.136 -12.63,13.969 -19.5,20.5 -6.93,-1.919 -11.76,-6.419 -14.5,-13.5 -1.55,-4.178 -1.72,-8.344 -0.5,-12.5 23.75,-1.758 40.25,-13.592 49.5,-35.5 8.25,-35 -3.92,-59.8337 -36.5,-74.5 -10.23,-2.457 -20.23,-1.7903 -30,2 -7.63,5.9596 -14.96,12.2929 -22,19 -5.71,2.631 -11.71,4.131 -18,4.5 -1.67,0.333 -2.67,1.333 -3,3 0.82,2.283 1.49,4.616 2,7 -0.33,1.667 -1.33,2.667 -3,3 -1.14,2.562 -1.97,5.228 -2.5,8 -1.33,0.667 -2.67,1.333 -4,2 -1.33,5.663 -3.16,11.163 -5.5,16.5 0.39,3.177 1.56,6.01 3.5,8.5 6.67,4 12,9.333 16,16 2.1,10.277 3.44,20.61 4,31 -1.54,1.878 -3.38,3.378 -5.5,4.5 -6.05,1.119 -12.05,2.452 -18,4 -10.34,3.67 -20.68,7.337 -31,11 -5.33,0.667 -10.67,0.667 -16,0 -4.63,-2.905 -8.8,-6.405 -12.5,-10.5 -0.4,-3.816 0.27,-7.483 2,-11 2.41,-2.124 4.91,-1.957 7.5,0.5 11.89,1.039 23.56,-0.128 35,-3.5 17,5.002 24.67,-1.331 23,-19 -2.59,-0.98 -5.25,-1.313 -8,-1 0,-1 0,-2 0,-3 -2.69,-0.164 -5.35,0.003 -8,0.5 -2.98,3.157 -6.65,4.657 -11,4.5 -6.19,-0.288 -12.19,-1.455 -18,-3.5 -0.83,-0.833 -1.67,-1.667 -2.5,-2.5 -1.61,-14.588 -3.77,-29.088 -6.5,-43.5 0.5,-3.167 2.33,-5 5.5,-5.5 6.75,2.761 13.59,3.261 20.5,1.5 2.2,-2.54 4.7,-4.707 7.5,-6.5 1.56,-2.457 2.56,-5.124 3,-8 1,-0.667 2,-1.333 3,-2 0.33,-4 0.67,-8 1,-12 13.24,-20.7515 9.41,-37.5848 -11.5,-50.5 -19.49,-12.0619 -36.66,-9.5619 -51.5,7.5 -4.88,8.7403 -6.55,18.0736 -5,28 0.62,5.0376 1.45,10.0376 2.5,15 -0.4,1.6966 -0.9,3.3632 -1.5,5 -7.667,6 -15.333,12 -23,18 2.885,-48.8009 26.05,-84.1343 69.5,-106 z m 39,0 c 1.3,1.8972 1.97,4.2305 2,7 0.07,3.1246 -0.43,6.1246 -1.5,9 -3.1,-0.9553 -6.27,-1.7886 -9.5,-2.5 3.13,-4.4426 6.13,-8.9426 9,-13.5 z m 47,1 c 8.02,2.5125 15.36,6.3458 22,11.5 1.83,1.1133 2.66,2.6133 2.5,4.5 -2.83,2.1667 -5.67,4.3333 -8.5,6.5 -1,0.6667 -2,0.6667 -3,0 -4.83,-6.1667 -10.33,-11.6667 -16.5,-16.5 -0.67,-0.6667 -0.67,-1.3333 0,-2 1.38,-1.2051 2.54,-2.5384 3.5,-4 z m -11,10 c 7.11,3.5888 13.28,8.5888 18.5,15 0.67,0.6667 0.67,1.3333 0,2 -5.43,3.213 -11.09,5.8796 -17,8 -3.64,-6.0792 -6.81,-12.4125 -9.5,-19 2.7,-2.009 5.36,-4.009 8,-6 z m -16,8 c 1,-0.0858 1.83,0.2476 2.5,1 2.98,5.7876 5.81,11.621 8.5,17.5 -7.52,2.1452 -15.18,3.3119 -23,3.5 0,-6.6667 0,-13.3333 0,-20 4.26,0.1558 8.26,-0.5109 12,-2 z m 57,1 c 3.92,2.4155 7.42,5.4155 10.5,9 3.17,3.8333 6.33,7.6667 9.5,11.5 -5.44,4.1355 -11.27,7.6355 -17.5,10.5 -4.99,-6.6309 -9.49,-13.6309 -13.5,-21 3.69,-3.3554 7.35,-6.6887 11,-10 z"
       id="path2" />
  </g>
  <g
     id="g8"
     transform="translate(-8.5,0.5)">
    <path
       style="opacity:0.972"
       fill="#1d90ff"
       d="m 856.5,2.5 c 10.733,-0.17926 21.233,1.15407 31.5,4 0.832,10.0166 0.666,20.0166 -0.5,30 -9.285,-1.1396 -18.619,-1.3063 -28,-0.5 -8.091,1.7589 -13.258,6.5922 -15.5,14.5 -0.5,14.3295 -0.667,28.6628 -0.5,43 13.667,0 27.333,0 41,0 0,8.333 0,16.667 0,25 -13.667,0 -27.333,0 -41,0 0,53.667 0,107.333 0,161 -11.667,0 -23.333,0 -35,0 0,-53.667 0,-107.333 0,-161 -10,0 -20,0 -30,0 0,-8.333 0,-16.667 0,-25 10,0 20,0 30,0 0.141,-17.009 0.641,-34.009 1.5,-51 3.509,-19.8429 15.009,-32.3429 34.5,-37.5 4.165,-0.70536 8.165,-1.53869 12,-2.5 z"
       id="path6" />
  </g>
  <g
     id="g12"
     transform="translate(-8.5,0.5)">
    <path
       style="opacity:0.981"
       fill="#1e8fff"
       d="m 381.5,11.5 c 13.667,0 27.333,0 41,0 0,13 0,26 0,39 -13.667,0 -27.333,0 -41,0 0,-13 0,-26 0,-39 z"
       id="path10" />
  </g>
  <g
     id="g16"
     transform="translate(-8.5,0.5)">
    <path
       style="opacity:0.937"
       fill="#1e90ff"
       d="m 965.5,30.5 c 0.997,-0.0299 1.664,0.4701 2,1.5 -2.021,19.2775 -9.688,35.7775 -23,49.5 -3.339,-12.2895 -1.172,-23.6228 6.5,-34 5.044,-5.5391 9.877,-11.2058 14.5,-17 z"
       id="path14" />
  </g>
  <g
     id="g20"
     transform="translate(-8.5,0.5)">
    <path
       style="opacity:0.942"
       fill="#1e90ff"
       d="m 1223.5,31.5 c 1.42,0.2086 2.76,0.7086 4,1.5 7.33,7.6605 13.49,16.1605 18.5,25.5 1.27,4.9271 2.1,9.9271 2.5,15 0.11,2.888 -0.55,5.5547 -2,8 -7.22,-6.7394 -12.72,-14.7394 -16.5,-24 -3.11,-8.4435 -5.28,-17.1102 -6.5,-26 z"
       id="path18" />
  </g>
  <g
     id="g24"
     transform="translate(-8.5,0.5)">
    <path
       style="opacity:0.943"
       fill="#1e90ff"
       d="m 975.5,58.5 c 0.997,-0.0299 1.664,0.4701 2,1.5 -5.834,18.8539 -15.834,35.0206 -30,48.5 -2.084,-16.6695 3.249,-30.5028 16,-41.5 3.891,-3.1011 7.891,-5.9344 12,-8.5 z"
       id="path22" />
  </g>
  <g
     id="g28"
     transform="translate(-8.5,0.5)">
    <path
       style="opacity:0.938"
       fill="#1e90ff"
       d="m 1214.5,57.5 c 15.83,7.9952 25.67,20.6618 29.5,38 0.93,4.52 0.6,8.854 -1,13 -14.17,-14.3341 -23.67,-31.3341 -28.5,-51 z"
       id="path26" />
  </g>
  <g
     id="g32"
     transform="translate(-8.5,0.5)">
    <path
       style="opacity:0.935"
       fill="#1e90ff"
       d="m 1256.5,62.5 c 1.09,0.12 1.75,0.7867 2,2 5.92,17.893 6.42,35.893 1.5,54 -1.85,5.054 -4.69,9.388 -8.5,13 -2.53,-17.646 -2.36,-35.3127 0.5,-53 1.19,-5.4472 2.69,-10.7805 4.5,-16 z"
       id="path30" />
  </g>
  <g
     id="g36"
     transform="translate(-8.5,0.5)">
    <path
       style="opacity:0.939"
       fill="#1e90ff"
       d="m 932.5,63.5 c 2.276,0.2565 3.443,1.5898 3.5,4 5.426,20.4046 6.759,41.071 4,62 -0.414,0.457 -0.914,0.791 -1.5,1 -4.087,-3.83 -6.921,-8.497 -8.5,-14 -4.589,-17.8873 -3.755,-35.5539 2.5,-53 z"
       id="path34" />
  </g>
  <g
     id="g40"
     transform="translate(-8.5,0.5)">
    <path
       style="opacity:0.98"
       fill="#1e90ff"
       d="m 273.5,88.5 c 23.632,-3.5114 44.632,2.1553 63,17 10.222,10.145 15.722,22.479 16.5,37 0.5,45.999 0.667,91.999 0.5,138 -11.333,0 -22.667,0 -34,0 0.167,-38.001 0,-76.001 -0.5,-114 0.779,-12.332 -1.554,-23.999 -7,-35 -7.904,-11.035 -18.737,-16.368 -32.5,-16 -22.498,1.334 -37.331,12.667 -44.5,34 -1.929,10.566 -2.929,21.233 -3,32 -0.5,32.998 -0.667,65.998 -0.5,99 -11.333,0 -22.667,0 -34,0 0,-62.667 0,-125.333 0,-188 11,0 22,0 33,0 -0.201,8.708 0.299,17.375 1.5,26 9.88,-15.519 23.714,-25.5186 41.5,-30 z"
       id="path38" />
  </g>
  <g
     id="g44"
     transform="translate(-8.5,0.5)">
    <path
       style="opacity:0.982"
       fill="#1e90ff"
       d="m 513.5,88.5 c 27.88,-3.9932 50.713,4.6735 68.5,26 7.581,11.742 11.747,24.575 12.5,38.5 -11.662,0.5 -23.329,0.667 -35,0.5 -2.705,-31.505 -19.372,-43.672 -50,-36.5 -10.559,4.893 -18.059,12.726 -22.5,23.5 -9.629,29.88 -9.962,59.88 -1,90 11.986,26.996 31.486,34.496 58.5,22.5 10.898,-9.298 16.232,-21.132 16,-35.5 11.667,0 23.333,0 35,0 -2.388,34.311 -20.055,56.144 -53,65.5 -25.514,5.564 -48.847,0.897 -70,-14 -13.307,-12.775 -21.807,-28.275 -25.5,-46.5 -5.718,-28.453 -4.052,-56.453 5,-84 11.174,-28.358 31.674,-45.0251 61.5,-50 z"
       id="path42" />
  </g>
  <g
     id="g48"
     transform="translate(-8.5,0.5)">
    <path
       style="opacity:0.983"
       fill="#1e90ff"
       d="m 679.5,88.5 c 20.554,-2.0757 39.888,1.7576 58,11.5 19.476,14.102 30.309,33.268 32.5,57.5 1.075,11.977 1.575,23.977 1.5,36 -41.67,-0.008 -83.337,0.325 -125,1 -1.474,15.464 1.359,30.131 8.5,44 11.056,16.587 26.556,23.087 46.5,19.5 19.932,-4.442 30.266,-16.942 31,-37.5 12.333,0 24.667,0 37,0 -3.927,32.422 -21.593,52.922 -53,61.5 -62.459,11.85 -97.626,-13.65 -105.5,-76.5 -1.849,-20.318 -0.183,-40.318 5,-60 9.778,-31.957 30.945,-50.9567 63.5,-57 z m 5,26 c 23.549,-1.912 39.382,8.088 47.5,30 1.974,7.88 3.141,15.88 3.5,24 -29.667,0 -59.333,0 -89,0 -0.408,-18.629 6.259,-34.129 20,-46.5 5.649,-3.598 11.649,-6.098 18,-7.5 z"
       id="path46" />
  </g>
  <g
     id="g52"
     transform="translate(-8.5,0.5)">
    <path
       style="opacity:0.985"
       fill="#1e90ff"
       d="m 8.5,92.5 c 11.6667,0 23.3333,0 35,0 0.6044,44.331 1.1044,88.664 1.5,133 5.3251,26.918 21.4918,37.751 48.5,32.5 15.5,-4.833 25.667,-15 30.5,-30.5 2.106,-7.194 3.439,-14.528 4,-22 0.5,-37.665 0.667,-75.332 0.5,-113 11.667,0 23.333,0 35,0 0,62.667 0,125.333 0,188 -11,0 -22,0 -33,0 0.441,-8.776 -0.059,-17.442 -1.5,-26 -11.736,18.364 -28.569,28.531 -50.5,30.5 -34.172,3.674 -56.3387,-10.826 -66.5,-43.5 -0.9929,-3.942 -1.6596,-7.942 -2,-12 C 9.75132,183.827 9.25132,138.16 8.5,92.5 Z"
       id="path50" />
  </g>
  <g
     id="g56"
     transform="translate(-8.5,0.5)">
    <path
       style="opacity:0.969"
       fill="#1e90ff"
       d="m 384.5,92.5 c 11.667,0 23.333,0 35,0 0,62.333 0,124.667 0,187 -11.667,0 -23.333,0 -35,0 0,-62.333 0,-124.667 0,-187 z"
       id="path54" />
  </g>
  <g
     id="g60"
     transform="translate(-8.5,0.5)">
    <path
       style="opacity:0.946"
       fill="#1e90ff"
       d="m 964.5,96.5 c 1.265,1.0145 1.931,2.5145 2,4.5 -1.679,18.703 -7.179,36.203 -16.5,52.5 -0.689,0.857 -1.522,1.523 -2.5,2 -1.306,-1.412 -2.14,-3.079 -2.5,-5 -2.422,-13.588 -0.089,-26.255 7,-38 4,-5.495 8.166,-10.829 12.5,-16 z"
       id="path58" />
  </g>
  <g
     id="g64"
     transform="translate(-8.5,0.5)">
    <path
       style="opacity:0.945"
       fill="#1e90ff"
       d="m 1224.5,96.5 c 17.05,13.453 24.21,31.12 21.5,53 -0.25,2.677 -1.25,5.01 -3,7 -11.5,-18.324 -17.66,-38.324 -18.5,-60 z"
       id="path62" />
  </g>
  <g
     id="g68"
     transform="translate(-8.5,0.5)">
    <path
       style="opacity:0.948"
       fill="#1e90ff"
       d="m 920.5,113.5 c 3.615,1.521 6.115,4.187 7.5,8 8.698,15.428 15.031,31.761 19,49 0.821,3.054 0.655,6.054 -0.5,9 -16.026,-11.044 -24.526,-26.377 -25.5,-46 -0.5,-6.658 -0.666,-13.325 -0.5,-20 z"
       id="path66" />
  </g>
  <g
     id="g72"
     transform="translate(-8.5,0.5)">
    <path
       style="opacity:0.95"
       fill="#1e90ff"
       d="m 1268.5,113.5 c 4.15,19.179 0.65,37.179 -10.5,54 -4.05,4.557 -8.55,8.557 -13.5,12 -1.15,-2.946 -1.32,-5.946 -0.5,-9 4.59,-20.613 12.75,-39.613 24.5,-57 z"
       id="path70" />
  </g>
  <g
     id="g76"
     transform="translate(-8.5,0.5)">
    <path
       style="opacity:0.946"
       fill="#1e90ff"
       d="m 1224.5,132.5 c 15.39,20.005 17.56,41.339 6.5,64 -0.69,0.857 -1.52,1.523 -2.5,2 -2.42,-4.324 -3.92,-8.991 -4.5,-14 -3.43,-17.436 -3.26,-34.769 0.5,-52 z"
       id="path74" />
  </g>
  <g
     id="g80"
     transform="translate(-8.5,0.5)">
    <path
       style="opacity:0.951"
       fill="#1e90ff"
       d="m 965.5,133.5 c 1.466,0.847 2.3,2.18 2.5,4 1.666,15.357 1.333,30.691 -1,46 -0.741,5.632 -2.407,10.965 -5,16 -10.253,-14.886 -12.253,-30.886 -6,-48 2.4,-6.47 5.567,-12.47 9.5,-18 z"
       id="path78" />
  </g>
  <g
     id="g84"
     transform="translate(-8.5,0.5)">
    <path
       style="opacity:0.949"
       fill="#1e91ff"
       d="m 924.5,169.5 c 3.524,0.429 6.524,1.929 9,4.5 16.232,14.888 29.398,32.055 39.5,51.5 0.781,1.444 0.614,2.777 -0.5,4 -26.446,-11.518 -42.446,-31.518 -48,-60 z"
       id="path82" />
  </g>
  <g
     id="g88"
     transform="translate(-8.5,0.5)">
    <path
       style="opacity:0.952"
       fill="#1e90ff"
       d="m 1262.5,169.5 c 1.48,-0.262 2.81,0.071 4,1 -5.15,22.611 -17.15,40.444 -36,53.5 -4.47,2.883 -9.14,4.383 -14,4.5 5.97,-14.125 14.13,-26.792 24.5,-38 7.06,-7.23 14.23,-14.23 21.5,-21 z"
       id="path86" />
  </g>
  <g
     id="g92"
     transform="translate(-8.5,0.5)">
    <path
       style="opacity:0.96"
       fill="#1e90ff"
       d="m 974.5,172.5 c 1.951,1.216 3.451,2.882 4.5,5 9.418,19.334 14.251,39.668 14.5,61 -10.98,-5.959 -18.147,-14.959 -21.5,-27 -2.521,-13.263 -1.688,-26.263 2.5,-39 z"
       id="path90" />
  </g>
  <g
     id="g96"
     transform="translate(-8.5,0.5)">
    <path
       style="opacity:0.952"
       fill="#1e90ff"
       d="m 1214.5,172.5 c 1.25,0.077 2.08,0.744 2.5,2 5.77,17.299 4.43,33.965 -4,50 -4.07,5.904 -9.24,10.571 -15.5,14 0.02,-23.417 5.69,-45.417 17,-66 z"
       id="path94" />
  </g>
  <g
     id="g100"
     transform="translate(-8.5,0.5)">
    <path
       style="opacity:0.963"
       fill="#1e90ff"
       d="m 995.5,213.5 c 1.373,-0.157 2.707,0.01 4,0.5 13.76,10.427 26.26,22.26 37.5,35.5 2.32,2.98 3.82,6.313 4.5,10 -19.29,2.602 -32.79,-5.065 -40.5,-23 -2.623,-7.491 -4.456,-15.158 -5.5,-23 z"
       id="path98" />
  </g>
  <g
     id="g104"
     transform="translate(-8.5,0.5)">
    <path
       style="opacity:0.961"
       fill="#1e90ff"
       d="m 1191.5,213.5 c 1,0 2,0 3,0 -0.24,15.307 -5.58,28.473 -16,39.5 -8.81,6.024 -18.48,8.19 -29,6.5 0.56,-5.12 2.73,-9.454 6.5,-13 11.13,-11.968 22.96,-22.968 35.5,-33 z"
       id="path102" />
  </g>
  <g
     id="g108"
     transform="translate(-8.5,0.5)">
    <path
       style="opacity:0.956"
       fill="#1e90ff"
       d="m 947.5,224.5 c 13.235,2.949 25.568,8.116 37,15.5 10.5,5.501 19.5,12.834 27,22 -20.44,4.52 -37.606,-0.98 -51.5,-16.5 -5.215,-6.438 -9.382,-13.438 -12.5,-21 z"
       id="path106" />
  </g>
  <g
     id="g112"
     transform="translate(-8.5,0.5)">
    <path
       style="opacity:0.955"
       fill="#1e90ff"
       d="m 1239.5,224.5 c 1.33,0 2.67,0 4,0 -5.34,12.823 -13.67,23.323 -25,31.5 -11.77,7.018 -24.44,9.184 -38,6.5 1.62,-4.142 4.29,-7.642 8,-10.5 15.92,-11.293 32.92,-20.46 51,-27.5 z"
       id="path110" />
  </g>
  <g
     id="g116"
     transform="translate(-8.5,0.5)">
    <path
       style="opacity:0.949"
       fill="#1e90ff"
       d="m 1035.5,263.5 c 20.61,-0.898 40.61,2.102 60,9 34.11,-11.324 68.45,-11.824 103,-1.5 1.33,1 1.33,2 0,3 -21.83,9.225 -44.16,10.892 -67,5 -3,-2.333 -6,-4.667 -9,-7 -6.34,0.22 -12.34,1.887 -18,5 14.39,8.553 26.39,19.72 36,33.5 -2.33,3.622 -5.33,4.788 -9,3.5 -10.31,-12.811 -22.31,-23.644 -36,-32.5 -13.69,8.856 -25.69,19.689 -36,32.5 -1,0.5 -2,1 -3,1.5 -2.76,-1.261 -5.1,-3.095 -7,-5.5 10.56,-13.093 22.89,-24.093 37,-33 -5.26,-2.524 -10.76,-4.357 -16.5,-5.5 -3.77,2.097 -7.27,4.597 -10.5,7.5 -2.86,1.399 -5.86,2.399 -9,3 -21.05,2.954 -41.05,-0.213 -60,-9.5 5.752,-2.441 11.75,-4.275 18,-5.5 9.09,-1.63 18.09,-2.797 27,-3.5 z"
       id="path114" />
  </g>
</svg>
