<svg id="svg" version="1.1" xmlns="http://www.w3.org/2000/svg" xmlns:xlink="http://www.w3.org/1999/xlink" width="400" height="401.63265306122446" viewBox="0, 0, 400,401.63265306122446"><g id="svgg"><path id="path0" d="M184.000 0.811 C 176.585 1.376,168.654 2.437,161.301 3.847 C 160.807 3.942,159.997 4.086,159.501 4.168 C 159.005 4.250,157.520 4.593,156.200 4.931 C 154.880 5.268,153.170 5.654,152.400 5.788 C 150.828 6.061,150.490 6.153,149.519 6.575 C 149.145 6.738,148.662 6.762,148.447 6.629 C 148.231 6.496,147.954 6.550,147.831 6.750 C 147.630 7.076,142.381 8.581,141.400 8.595 C 141.180 8.598,140.910 8.690,140.800 8.800 C 140.690 8.910,137.180 10.147,133.000 11.548 C 75.419 30.852,29.067 78.188,10.353 136.800 C 9.405 139.770,8.486 142.260,8.312 142.334 C 8.138 142.408,8.071 142.592,8.164 142.742 C 8.258 142.893,7.620 145.713,6.746 149.008 C 5.873 152.304,5.076 155.450,4.975 156.000 C 4.874 156.550,4.678 157.450,4.538 158.000 C 4.228 159.224,4.124 159.765,3.818 161.755 C 3.686 162.611,3.502 163.435,3.409 163.586 C 3.315 163.737,2.961 165.647,2.622 167.830 C -1.157 192.170,-0.561 217.197,4.345 240.100 C 4.757 242.025,5.006 243.600,4.898 243.600 C 4.790 243.600,4.880 243.825,5.096 244.100 C 5.313 244.375,5.503 244.870,5.518 245.200 C 5.600 246.974,9.834 261.210,12.441 268.474 C 32.903 325.499,79.387 371.605,135.400 390.435 C 137.600 391.174,139.457 391.909,139.526 392.067 C 139.595 392.226,139.910 392.256,140.226 392.135 C 140.542 392.014,140.800 392.124,140.800 392.381 C 140.800 392.637,140.949 392.755,141.132 392.642 C 141.314 392.529,142.349 392.707,143.432 393.036 C 174.497 402.491,216.239 403.816,244.400 396.242 C 244.730 396.153,247.790 395.320,251.200 394.390 C 254.610 393.461,257.670 392.678,258.000 392.650 C 258.330 392.623,258.690 392.510,258.800 392.399 C 258.910 392.289,260.890 391.590,263.200 390.846 C 265.510 390.102,269.920 388.515,273.000 387.320 C 276.080 386.126,278.870 385.115,279.200 385.074 C 279.530 385.033,279.891 384.881,280.001 384.736 C 280.112 384.591,282.632 383.360,285.601 382.000 C 297.024 376.768,313.795 366.508,323.189 359.006 C 335.597 349.095,356.340 328.321,355.380 326.767 C 355.186 326.455,353.402 325.421,336.800 316.006 C 330.310 312.326,322.947 308.116,320.439 306.652 L 315.877 303.989 309.239 310.509 C 293.942 325.532,277.539 336.356,258.800 343.794 C 256.710 344.624,254.460 345.530,253.800 345.808 C 251.678 346.702,243.833 349.190,242.800 349.297 C 242.250 349.354,241.710 349.515,241.600 349.655 C 241.266 350.080,230.333 352.460,229.747 352.235 C 229.446 352.120,229.200 352.168,229.200 352.343 C 229.200 352.738,222.932 353.729,222.424 353.415 C 222.221 353.289,221.935 353.382,221.787 353.621 C 221.640 353.859,220.950 354.005,220.254 353.945 C 219.558 353.885,218.762 353.977,218.484 354.148 C 218.207 354.319,217.309 354.422,216.490 354.376 C 215.670 354.331,214.673 354.431,214.273 354.600 C 213.873 354.768,212.478 354.809,211.173 354.691 C 209.868 354.573,208.700 354.639,208.577 354.838 C 208.280 355.317,192.915 355.309,192.618 354.829 C 192.492 354.626,191.414 354.560,190.222 354.683 C 189.029 354.806,187.727 354.769,187.327 354.601 C 186.927 354.434,185.853 354.332,184.941 354.376 C 184.028 354.420,183.162 354.262,183.016 354.026 C 182.870 353.790,182.312 353.707,181.776 353.842 C 181.240 353.976,180.486 353.950,180.101 353.784 C 179.715 353.617,178.998 353.520,178.507 353.568 C 178.015 353.616,177.385 353.515,177.107 353.342 C 176.828 353.170,176.105 353.081,175.500 353.145 C 174.895 353.208,174.399 353.112,174.398 352.930 C 174.396 352.749,173.679 352.573,172.803 352.540 C 170.899 352.469,161.985 350.456,161.363 349.957 C 161.123 349.765,160.839 349.695,160.731 349.802 C 160.489 350.045,156.360 348.848,155.763 348.363 C 155.523 348.167,155.238 348.095,155.131 348.203 C 154.943 348.391,149.853 346.797,148.200 346.032 C 147.760 345.829,144.970 344.708,142.000 343.541 C 107.808 330.108,77.669 301.947,61.365 268.200 C 56.943 259.046,51.694 245.619,52.211 244.783 C 52.317 244.610,52.236 244.408,52.030 244.334 C 51.824 244.260,51.598 243.660,51.528 243.000 C 51.458 242.340,51.289 241.710,51.154 241.600 C 50.464 241.039,46.980 223.950,47.356 222.971 C 47.471 222.671,47.373 222.307,47.138 222.162 C 46.897 222.013,46.807 221.314,46.931 220.549 C 47.062 219.743,46.983 219.200,46.735 219.200 C 46.488 219.200,46.378 218.469,46.463 217.400 C 46.541 216.410,46.458 215.600,46.277 215.600 C 46.096 215.600,45.942 214.475,45.935 213.100 C 45.928 211.725,45.848 206.337,45.756 201.127 C 45.654 195.301,45.738 191.562,45.975 191.416 C 46.190 191.283,46.257 190.313,46.127 189.215 C 45.999 188.135,46.032 186.925,46.201 186.526 C 46.369 186.127,46.470 185.143,46.426 184.341 C 46.381 183.538,46.538 182.762,46.774 182.616 C 47.010 182.470,47.093 181.912,46.958 181.376 C 46.824 180.840,46.849 180.086,47.014 179.701 C 47.180 179.315,47.275 178.505,47.227 177.900 C 47.179 177.295,47.302 176.800,47.501 176.800 C 47.699 176.800,47.782 176.260,47.685 175.600 C 47.575 174.849,47.685 174.400,47.978 174.400 C 48.236 174.400,48.332 174.213,48.190 173.984 C 47.921 173.549,49.801 164.136,50.503 162.400 C 50.725 161.850,50.976 160.860,51.061 160.200 C 51.145 159.540,51.392 158.940,51.609 158.866 C 51.827 158.792,51.916 158.588,51.808 158.413 C 51.700 158.238,52.396 155.778,53.356 152.947 C 66.698 113.587,95.390 80.543,131.800 62.605 C 141.289 57.930,157.457 51.617,158.419 52.212 C 158.598 52.323,158.848 52.246,158.974 52.043 C 159.259 51.581,168.886 49.228,171.026 49.097 C 171.892 49.043,172.702 48.862,172.828 48.694 C 172.953 48.525,174.076 48.345,175.324 48.294 C 176.572 48.242,177.595 48.041,177.597 47.848 C 177.598 47.654,178.230 47.598,179.000 47.723 C 179.829 47.857,180.400 47.784,180.400 47.544 C 180.400 47.321,181.075 47.177,181.900 47.223 C 182.725 47.269,183.724 47.170,184.119 47.003 C 184.515 46.836,185.550 46.795,186.419 46.912 C 187.288 47.028,188.108 46.948,188.241 46.733 C 188.374 46.519,189.859 46.344,191.541 46.344 C 197.891 46.348,206.304 46.349,209.093 46.347 C 210.684 46.345,212.181 46.465,212.420 46.612 C 212.659 46.760,214.375 46.944,216.235 47.022 C 218.095 47.099,219.838 47.301,220.108 47.469 C 220.379 47.638,221.002 47.723,221.493 47.660 C 221.985 47.596,222.615 47.685,222.893 47.858 C 223.172 48.030,223.895 48.119,224.500 48.055 C 225.105 47.992,225.601 48.088,225.603 48.270 C 225.604 48.451,226.549 48.646,227.703 48.703 C 228.856 48.760,229.857 48.975,229.926 49.181 C 229.995 49.387,230.285 49.466,230.569 49.356 C 231.488 49.004,244.204 52.343,249.000 54.196 C 263.673 59.864,271.863 63.747,280.815 69.280 C 307.061 85.503,329.101 110.608,340.794 137.600 C 341.509 139.250,342.417 141.320,342.811 142.200 C 345.228 147.589,348.979 158.586,348.607 159.188 C 348.490 159.377,348.552 159.592,348.743 159.666 C 349.211 159.847,351.714 170.326,351.452 171.009 C 351.338 171.305,351.413 171.605,351.619 171.674 C 351.825 171.743,352.040 172.744,352.097 173.897 C 352.154 175.051,352.349 175.996,352.530 175.997 C 352.712 175.999,352.821 176.495,352.773 177.100 C 352.725 177.705,352.815 178.502,352.974 178.871 C 353.133 179.240,353.294 180.813,353.332 182.367 C 353.369 183.921,353.552 185.194,353.737 185.196 C 353.922 185.198,354.035 186.145,353.987 187.300 C 353.940 188.455,353.947 189.490,354.004 189.600 C 354.252 190.082,354.225 211.600,353.976 211.600 C 353.823 211.600,353.789 212.402,353.899 213.381 C 354.009 214.361,353.963 215.486,353.796 215.881 C 353.630 216.277,353.530 217.257,353.574 218.059 C 353.619 218.862,353.480 219.627,353.265 219.760 C 353.051 219.892,352.968 220.358,353.083 220.794 C 353.197 221.231,353.154 221.906,352.988 222.294 C 352.821 222.682,352.725 223.495,352.773 224.100 C 352.821 224.705,352.672 225.200,352.443 225.200 C 352.213 225.200,352.125 225.459,352.246 225.776 C 352.611 226.726,349.770 239.694,349.144 239.934 C 348.952 240.008,348.885 240.214,348.995 240.391 C 349.105 240.569,348.648 242.556,347.979 244.806 C 347.311 247.056,346.817 248.934,346.882 248.980 C 346.947 249.026,348.890 250.143,351.200 251.463 C 353.510 252.783,359.270 256.075,364.000 258.779 C 385.087 270.832,386.539 271.622,386.809 271.185 C 386.960 270.942,388.054 267.831,389.241 264.271 C 390.429 260.712,391.536 257.740,391.702 257.666 C 391.869 257.592,391.925 257.402,391.827 257.243 C 391.729 257.084,392.098 255.435,392.649 253.577 C 393.199 251.720,393.728 249.885,393.825 249.500 C 394.489 246.848,394.326 247.574,395.778 240.824 C 401.358 214.890,401.125 182.784,395.177 158.113 C 394.529 155.425,393.936 152.905,393.860 152.513 C 393.783 152.121,393.615 151.530,393.487 151.200 C 393.104 150.214,390.605 141.033,390.603 140.600 C 390.601 140.380,390.497 140.110,390.370 140.000 C 390.244 139.890,389.548 138.000,388.825 135.800 C 369.825 78.009,322.381 31.004,263.000 11.140 C 260.140 10.183,257.710 9.310,257.600 9.200 C 257.490 9.090,257.130 8.976,256.800 8.946 C 256.470 8.917,253.050 8.051,249.200 7.022 C 245.350 5.994,241.660 5.058,241.000 4.943 C 240.340 4.827,238.630 4.474,237.200 4.157 C 223.716 1.169,199.377 -0.362,184.000 0.811 " stroke="none" fill="#040404" fill-rule="evenodd"></path><path id="path1" d="M190.700 0.289 C 191.415 0.378,192.585 0.378,193.300 0.289 C 194.015 0.201,193.430 0.128,192.000 0.128 C 190.570 0.128,189.985 0.201,190.700 0.289 M203.500 0.289 C 204.215 0.378,205.385 0.378,206.100 0.289 C 206.815 0.201,206.230 0.128,204.800 0.128 C 203.370 0.128,202.785 0.201,203.500 0.289 M116.800 16.814 C 115.524 17.525,115.494 17.580,116.465 17.430 C 117.561 17.261,119.200 16.515,119.200 16.186 C 119.200 15.790,118.139 16.067,116.800 16.814 M280.000 17.267 C 280.000 17.523,280.111 17.622,280.248 17.486 C 280.384 17.350,280.758 17.501,281.080 17.823 C 281.401 18.144,281.830 18.305,282.032 18.180 C 282.235 18.055,282.400 18.154,282.400 18.400 C 282.400 18.646,282.606 18.720,282.858 18.564 C 283.144 18.387,282.805 18.008,281.958 17.557 C 280.343 16.696,280.000 16.646,280.000 17.267 M113.107 18.550 C 112.804 18.853,111.846 19.475,110.978 19.933 C 110.110 20.390,109.531 20.773,109.691 20.782 C 110.236 20.815,114.400 18.635,114.400 18.317 C 114.400 17.821,113.712 17.945,113.107 18.550 M284.433 19.354 C 284.840 19.731,293.600 23.986,293.600 23.807 C 293.600 23.585,284.976 19.200,284.540 19.200 C 284.390 19.200,284.342 19.269,284.433 19.354 M103.500 23.627 C 102.675 24.063,102.000 24.508,102.000 24.618 C 102.000 24.727,102.720 24.449,103.600 24.000 C 104.480 23.551,105.200 23.097,105.200 22.992 C 105.200 22.730,105.197 22.731,103.500 23.627 M94.181 28.839 C 90.472 31.111,88.278 32.679,90.200 31.684 C 92.205 30.645,98.926 26.400,98.566 26.400 C 98.344 26.400,96.371 27.498,94.181 28.839 M300.000 27.371 C 300.000 27.612,304.224 30.000,304.649 29.999 C 304.842 29.998,303.956 29.368,302.680 28.599 C 300.385 27.215,300.000 27.039,300.000 27.371 M308.149 32.418 C 309.881 33.527,311.377 34.357,311.473 34.261 C 311.679 34.054,305.900 30.400,305.366 30.400 C 305.165 30.400,306.417 31.308,308.149 32.418 M77.600 40.200 C 77.322 40.535,77.279 40.800,77.502 40.800 C 77.722 40.800,78.126 40.530,78.400 40.200 C 78.678 39.865,78.721 39.600,78.498 39.600 C 78.278 39.600,77.874 39.870,77.600 40.200 M74.200 42.844 C 71.415 45.094,70.644 45.975,72.800 44.445 C 75.455 42.561,77.054 41.202,76.600 41.216 C 76.380 41.223,75.300 41.955,74.200 42.844 M325.872 45.109 C 326.352 45.489,327.872 46.694,329.250 47.788 C 330.628 48.881,331.635 49.580,331.487 49.340 C 331.075 48.675,325.759 44.399,325.355 44.409 C 325.160 44.414,325.392 44.729,325.872 45.109 M69.170 47.063 L 68.200 48.127 69.500 47.188 C 70.852 46.212,71.025 46.000,70.470 46.000 C 70.288 46.000,69.703 46.479,69.170 47.063 M190.900 47.076 C 191.285 47.176,191.915 47.176,192.300 47.076 C 192.685 46.975,192.370 46.893,191.600 46.893 C 190.830 46.893,190.515 46.975,190.900 47.076 M208.500 47.076 C 208.885 47.176,209.515 47.176,209.900 47.076 C 210.285 46.975,209.970 46.893,209.200 46.893 C 208.430 46.893,208.115 46.975,208.500 47.076 M65.978 49.865 L 64.600 51.330 66.300 49.998 C 67.235 49.266,68.000 48.606,68.000 48.533 C 68.000 48.055,67.162 48.607,65.978 49.865 M332.400 50.300 C 332.400 50.465,333.075 51.124,333.900 51.764 L 335.400 52.928 334.022 51.464 C 332.583 49.936,332.400 49.805,332.400 50.300 M58.056 57.256 C 54.935 60.368,52.482 63.015,52.606 63.139 C 52.730 63.263,55.382 60.815,58.498 57.698 C 61.615 54.582,64.067 51.934,63.948 51.815 C 63.829 51.696,61.178 54.144,58.056 57.256 M336.400 53.851 C 336.400 54.312,347.129 65.005,347.359 64.773 C 347.549 64.581,341.768 58.497,338.496 55.445 C 337.343 54.370,336.400 53.653,336.400 53.851 M140.600 58.614 C 139.940 58.917,139.670 59.166,140.000 59.168 C 140.330 59.170,141.050 58.914,141.600 58.600 C 142.865 57.877,142.189 57.887,140.600 58.614 M262.800 60.336 C 262.800 60.627,264.508 61.600,265.019 61.600 C 265.595 61.600,265.048 60.859,264.181 60.464 C 262.967 59.911,262.800 59.895,262.800 60.336 M270.400 64.164 C 270.400 64.378,277.101 68.000,277.496 68.000 C 277.663 68.000,276.287 67.100,274.439 66.000 C 271.347 64.160,270.400 63.730,270.400 64.164 M50.200 65.600 C 49.568 66.260,49.219 66.790,49.425 66.778 C 49.778 66.757,51.839 64.400,51.505 64.400 C 51.420 64.400,50.832 64.940,50.200 65.600 M127.096 65.350 C 124.775 66.777,124.777 67.008,127.100 65.841 C 128.255 65.261,129.200 64.700,129.200 64.593 C 129.200 64.215,128.579 64.438,127.096 65.350 M349.609 67.500 C 350.338 68.435,351.030 69.104,351.147 68.987 C 351.264 68.869,350.668 68.104,349.823 67.287 L 348.285 65.800 349.609 67.500 M122.072 68.245 C 120.682 69.033,119.623 69.757,119.720 69.853 C 119.898 70.031,124.800 67.233,124.800 66.953 C 124.800 66.706,124.720 66.745,122.072 68.245 M47.601 68.598 C 47.086 69.148,46.752 69.685,46.860 69.794 C 46.968 69.902,47.454 69.452,47.940 68.795 C 49.017 67.339,48.866 67.252,47.601 68.598 M352.419 70.695 C 352.927 71.407,353.436 71.897,353.550 71.783 C 353.664 71.669,353.249 71.086,352.626 70.488 L 351.495 69.400 352.419 70.695 M45.398 71.202 C 44.998 71.644,44.766 72.099,44.882 72.215 C 44.997 72.330,45.390 71.969,45.755 71.412 C 46.552 70.196,46.393 70.102,45.398 71.202 M354.374 73.000 C 354.978 74.164,356.797 76.269,356.792 75.800 C 356.790 75.580,356.151 74.680,355.373 73.800 C 354.595 72.920,354.145 72.560,354.374 73.000 M286.800 73.734 C 286.800 73.829,288.359 75.039,290.264 76.424 C 292.170 77.808,294.639 79.809,295.752 80.870 C 296.865 81.932,297.931 82.800,298.121 82.800 C 298.690 82.800,298.208 81.889,297.396 81.429 C 296.980 81.193,296.360 80.709,296.020 80.354 C 294.861 79.145,286.800 73.357,286.800 73.734 M40.820 77.020 C 39.889 78.253,39.195 79.328,39.276 79.409 C 39.358 79.491,40.196 78.560,41.140 77.340 C 42.084 76.120,42.778 75.045,42.684 74.951 C 42.589 74.856,41.751 75.787,40.820 77.020 M108.230 77.411 C 106.927 78.395,105.990 79.200,106.147 79.200 C 106.469 79.200,110.800 75.990,110.800 75.752 C 110.800 75.487,110.649 75.584,108.230 77.411 M357.227 76.600 C 357.230 76.820,357.765 77.623,358.416 78.385 C 359.067 79.147,359.595 79.597,359.589 79.385 C 359.583 79.173,359.048 78.370,358.400 77.600 C 357.752 76.830,357.224 76.380,357.227 76.600 M104.700 80.032 C 103.948 80.470,103.752 81.200,104.386 81.200 C 104.598 81.200,104.965 80.840,105.200 80.400 C 105.687 79.490,105.662 79.472,104.700 80.032 M38.000 80.600 C 37.722 80.935,37.679 81.200,37.902 81.200 C 38.122 81.200,38.526 80.930,38.800 80.600 C 39.078 80.265,39.121 80.000,38.898 80.000 C 38.678 80.000,38.274 80.270,38.000 80.600 M102.571 81.771 C 102.148 82.081,101.940 82.474,102.110 82.643 C 102.280 82.813,102.719 82.652,103.086 82.286 C 103.950 81.421,103.570 81.041,102.571 81.771 M99.722 84.166 C 99.105 84.697,98.701 85.234,98.825 85.358 C 98.949 85.482,99.669 85.054,100.425 84.408 C 101.181 83.761,101.585 83.225,101.322 83.216 C 101.060 83.207,100.340 83.635,99.722 84.166 M299.999 84.198 C 300.514 84.748,301.025 85.109,301.132 85.001 C 301.398 84.735,299.979 83.200,299.468 83.200 C 299.244 83.200,299.483 83.649,299.999 84.198 M362.423 83.400 C 362.416 83.964,363.901 85.832,364.155 85.578 C 364.270 85.463,363.929 84.836,363.397 84.184 C 362.864 83.533,362.426 83.180,362.423 83.400 M33.925 86.500 C 31.363 90.376,31.107 90.800,31.328 90.800 C 31.449 90.800,32.539 89.360,33.752 87.600 C 34.964 85.840,35.811 84.400,35.635 84.400 C 35.458 84.400,34.689 85.345,33.925 86.500 M303.381 87.129 C 305.066 88.909,305.200 89.006,305.200 88.434 C 305.200 88.232,304.435 87.480,303.500 86.762 L 301.800 85.457 303.381 87.129 M95.604 87.980 C 94.397 89.059,93.507 90.041,93.628 90.161 C 93.748 90.282,94.820 89.395,96.010 88.190 C 98.689 85.477,98.510 85.384,95.604 87.980 M367.677 91.108 C 368.185 91.938,369.493 94.090,370.585 95.890 C 371.677 97.691,372.645 99.088,372.738 98.996 C 372.927 98.807,367.255 89.600,366.950 89.600 C 366.843 89.600,367.170 90.279,367.677 91.108 M307.600 90.925 C 307.600 90.994,308.185 91.579,308.900 92.225 L 310.200 93.400 309.025 92.100 C 307.930 90.888,307.600 90.616,307.600 90.925 M28.839 94.535 C 27.731 96.369,26.710 98.214,26.569 98.635 C 26.429 99.056,26.930 98.410,27.683 97.200 C 30.018 93.448,31.285 91.200,31.065 91.200 C 30.949 91.200,29.947 92.701,28.839 94.535 M87.779 95.900 L 85.862 98.200 88.131 96.014 C 89.379 94.811,90.400 93.776,90.400 93.714 C 90.400 93.133,89.370 93.992,87.779 95.900 M313.400 97.200 C 314.940 98.777,315.200 98.981,315.200 98.614 C 315.200 98.194,312.684 95.600,312.277 95.600 C 312.036 95.600,312.541 96.320,313.400 97.200 M83.755 100.212 C 82.792 101.683,83.353 101.871,84.384 100.423 C 84.863 99.750,85.066 99.200,84.836 99.200 C 84.607 99.200,84.120 99.656,83.755 100.212 M316.000 100.247 C 316.000 100.612,318.412 103.312,319.309 103.952 C 320.032 104.467,320.052 104.445,319.616 103.629 C 319.358 103.148,318.889 102.656,318.574 102.535 C 318.258 102.413,318.000 102.092,318.000 101.819 C 318.000 101.547,317.671 101.026,317.269 100.662 C 316.516 99.981,316.000 99.812,316.000 100.247 M81.634 102.736 C 81.417 103.141,80.682 104.070,80.000 104.800 C 79.318 105.530,78.570 106.504,78.337 106.964 C 78.105 107.424,79.014 106.633,80.357 105.207 C 81.701 103.781,82.800 102.476,82.800 102.307 C 82.800 101.720,82.026 102.005,81.634 102.736 M375.400 104.400 C 375.741 105.060,376.111 105.600,376.221 105.600 C 376.331 105.600,376.141 105.060,375.800 104.400 C 375.459 103.740,375.089 103.200,374.979 103.200 C 374.869 103.200,375.059 103.740,375.400 104.400 M21.354 108.500 C 20.115 110.975,18.903 113.125,18.662 113.278 C 18.421 113.431,18.353 113.686,18.512 113.845 C 18.670 114.004,18.869 114.058,18.954 113.967 C 19.331 113.560,23.985 104.000,23.806 104.000 C 23.697 104.000,22.593 106.025,21.354 108.500 M320.420 105.000 C 320.421 105.220,320.968 106.030,321.636 106.800 C 322.305 107.570,322.665 107.840,322.437 107.400 C 321.821 106.209,320.418 104.540,320.420 105.000 M75.200 111.200 C 74.730 111.860,74.436 112.400,74.546 112.400 C 74.656 112.400,75.130 111.860,75.600 111.200 C 76.070 110.540,76.364 110.000,76.254 110.000 C 76.144 110.000,75.670 110.540,75.200 111.200 M379.600 112.591 C 379.600 113.103,381.808 117.200,382.083 117.200 C 382.542 117.200,382.495 117.016,381.520 115.011 C 381.036 114.015,380.486 113.200,380.297 113.200 C 380.108 113.200,380.064 113.020,380.200 112.800 C 380.336 112.580,380.257 112.400,380.024 112.400 C 379.791 112.400,379.600 112.486,379.600 112.591 M16.849 117.174 C 15.882 119.424,15.849 119.600,16.400 119.600 C 16.620 119.600,16.764 119.465,16.719 119.300 C 16.675 119.135,17.035 118.242,17.519 117.316 C 18.497 115.446,18.559 115.200,18.049 115.200 C 17.856 115.200,17.316 116.088,16.849 117.174 M67.670 122.870 C 66.733 124.426,66.040 125.774,66.130 125.863 C 66.220 125.953,67.053 124.747,67.983 123.183 C 68.912 121.618,69.605 120.271,69.522 120.189 C 69.440 120.106,68.606 121.313,67.670 122.870 M330.800 120.167 C 330.800 120.259,331.612 121.708,332.605 123.387 C 333.598 125.067,335.066 127.737,335.867 129.320 C 336.667 130.904,337.402 131.969,337.499 131.687 C 337.596 131.405,336.938 129.933,336.038 128.417 C 335.137 126.901,334.400 125.482,334.400 125.263 C 334.400 125.045,334.254 124.807,334.076 124.733 C 333.898 124.660,333.165 123.565,332.447 122.300 C 331.291 120.264,330.800 119.628,330.800 120.167 M64.568 128.218 C 63.982 129.218,63.603 130.136,63.725 130.258 C 63.846 130.380,64.411 129.562,64.980 128.440 C 66.262 125.909,66.003 125.770,64.568 128.218 M388.588 133.534 C 389.371 136.077,390.744 139.750,390.770 139.370 C 390.809 138.816,388.883 133.145,388.552 132.835 C 388.414 132.706,388.430 133.020,388.588 133.534 M338.000 133.539 C 338.000 133.725,338.360 134.293,338.800 134.800 C 339.711 135.850,339.805 135.687,339.136 134.219 C 338.691 133.243,338.000 132.829,338.000 133.539 M59.833 137.057 C 59.499 137.930,59.943 138.336,60.416 137.588 C 60.889 136.840,60.899 136.400,60.443 136.400 C 60.246 136.400,59.972 136.696,59.833 137.057 M57.665 142.217 C 56.995 143.688,57.123 144.002,57.847 142.665 C 58.186 142.040,58.388 141.454,58.296 141.363 C 58.205 141.271,57.921 141.656,57.665 142.217 M0.101 188.200 C 0.105 189.080,0.187 189.393,0.283 188.895 C 0.379 188.398,0.375 187.678,0.275 187.295 C 0.175 186.913,0.096 187.320,0.101 188.200 M399.701 189.800 C 399.705 190.680,399.787 190.993,399.883 190.495 C 399.979 189.998,399.975 189.278,399.875 188.895 C 399.775 188.513,399.696 188.920,399.701 189.800 M353.640 194.300 C 353.618 195.235,353.780 196.000,354.000 196.000 C 354.461 196.000,354.461 195.039,354.000 193.600 C 353.728 192.750,353.674 192.856,353.640 194.300 M45.965 197.200 C 45.836 198.850,45.791 200.275,45.865 200.367 C 46.270 200.867,46.424 199.773,46.318 197.148 L 46.200 194.200 45.965 197.200 M45.885 203.900 C 46.183 208.019,46.400 208.089,46.400 204.067 C 46.400 202.270,46.234 200.800,46.031 200.800 C 45.818 200.800,45.756 202.111,45.885 203.900 M353.640 207.100 C 353.672 208.649,353.739 208.815,354.000 208.000 C 354.463 206.555,354.463 205.200,354.000 205.200 C 353.780 205.200,353.618 206.055,353.640 207.100 M0.093 210.800 C 0.093 211.570,0.175 211.885,0.276 211.500 C 0.376 211.115,0.376 210.485,0.276 210.100 C 0.175 209.715,0.093 210.030,0.093 210.800 M399.701 212.600 C 399.705 213.480,399.787 213.793,399.883 213.295 C 399.979 212.798,399.975 212.078,399.875 211.695 C 399.775 211.313,399.696 211.720,399.701 212.600 M353.212 213.420 C 353.223 214.454,353.277 214.509,353.654 213.861 C 353.961 213.332,353.958 212.998,353.641 212.681 C 353.320 212.360,353.203 212.559,353.212 213.420 M346.032 248.657 C 346.014 249.129,346.295 249.628,346.657 249.766 C 347.148 249.955,347.212 249.890,346.910 249.509 C 346.689 249.229,346.407 248.730,346.285 248.400 C 346.134 247.990,346.053 248.072,346.032 248.657 M348.400 250.579 C 348.400 250.689,348.940 251.059,349.600 251.400 C 350.260 251.741,350.800 251.931,350.800 251.821 C 350.800 251.711,350.260 251.341,349.600 251.000 C 348.940 250.659,348.400 250.469,348.400 250.579 M351.200 252.127 C 351.200 252.355,358.286 256.400,358.686 256.400 C 358.847 256.400,358.623 256.160,358.189 255.866 C 356.829 254.947,351.200 251.935,351.200 252.127 M366.200 260.700 C 366.640 261.139,367.120 261.430,367.266 261.346 C 367.412 261.263,367.623 261.421,367.734 261.698 C 367.888 262.080,367.944 262.083,367.968 261.710 C 367.986 261.441,367.415 260.924,366.700 260.562 C 365.401 259.903,365.401 259.903,366.200 260.700 M368.400 261.979 C 368.400 262.199,368.940 262.659,369.600 263.000 C 370.260 263.341,370.800 263.441,370.800 263.221 C 370.800 263.001,370.260 262.541,369.600 262.200 C 368.940 261.859,368.400 261.759,368.400 261.979 M371.200 263.755 C 371.200 263.943,378.297 268.000,378.625 268.000 C 378.753 268.000,378.587 267.730,378.257 267.400 C 377.927 267.070,377.492 266.800,377.290 266.800 C 377.088 266.800,376.507 266.440,376.000 266.000 C 375.493 265.560,374.863 265.200,374.600 265.200 C 374.337 265.200,373.707 264.840,373.200 264.400 C 372.391 263.699,371.200 263.314,371.200 263.755 M60.006 265.100 C 60.017 265.647,60.753 266.581,60.988 266.346 C 61.303 266.031,60.801 264.800,60.357 264.800 C 60.161 264.800,60.003 264.935,60.006 265.100 M63.600 272.176 C 63.600 272.493,63.800 272.877,64.045 273.028 C 64.290 273.179,64.842 274.045,65.272 274.952 C 66.659 277.877,68.400 280.599,68.400 279.842 C 68.400 279.529,63.926 271.600,63.749 271.600 C 63.667 271.600,63.600 271.859,63.600 272.176 M16.417 280.876 C 16.447 281.812,17.871 284.132,18.144 283.690 C 18.289 283.456,18.144 283.001,17.823 282.680 C 17.501 282.358,17.350 281.984,17.486 281.848 C 17.622 281.711,17.513 281.600,17.243 281.600 C 16.973 281.600,16.856 281.432,16.983 281.228 C 17.109 281.023,17.030 280.742,16.807 280.604 C 16.583 280.466,16.408 280.588,16.417 280.876 M18.000 284.771 C 18.000 284.976,18.252 285.395,18.560 285.703 C 18.868 286.011,19.759 287.508,20.540 289.031 C 21.321 290.554,21.970 291.668,21.980 291.506 C 22.016 290.965,18.626 284.400,18.311 284.400 C 18.140 284.400,18.000 284.567,18.000 284.771 M74.437 289.600 C 75.596 291.396,75.600 291.401,75.598 290.967 C 75.597 290.765,75.132 290.060,74.565 289.400 L 73.534 288.200 74.437 289.600 M76.335 292.200 C 76.942 293.396,77.975 294.657,77.973 294.200 C 77.972 293.980,77.512 293.260,76.950 292.600 C 76.388 291.940,76.112 291.760,76.335 292.200 M23.400 294.800 C 23.741 295.460,24.111 296.000,24.221 296.000 C 24.331 296.000,24.141 295.460,23.800 294.800 C 23.459 294.140,23.089 293.600,22.979 293.600 C 22.869 293.600,23.059 294.140,23.400 294.800 M78.739 295.400 C 79.579 296.892,81.163 298.570,81.455 298.278 C 81.615 298.119,80.968 297.226,80.017 296.294 C 79.066 295.362,78.491 294.960,78.739 295.400 M82.014 299.238 C 82.000 299.893,83.462 301.471,83.785 301.149 C 83.884 301.050,83.529 300.436,82.997 299.784 C 82.328 298.966,82.024 298.797,82.014 299.238 M26.818 300.953 C 26.808 301.147,27.195 301.957,27.677 302.753 C 31.413 308.920,32.905 311.228,33.058 311.076 C 33.155 310.978,32.192 309.269,30.917 307.276 C 29.643 305.284,28.203 302.966,27.718 302.127 C 27.232 301.287,26.827 300.759,26.818 300.953 M84.713 302.604 C 85.216 303.585,86.733 305.001,86.996 304.737 C 87.102 304.632,86.538 303.928,85.744 303.173 C 84.854 302.327,84.458 302.109,84.713 302.604 M313.800 304.800 C 313.168 305.460,312.830 306.000,313.050 306.000 C 313.270 306.000,313.968 305.460,314.600 304.800 C 315.232 304.140,315.570 303.600,315.350 303.600 C 315.130 303.600,314.432 304.140,313.800 304.800 M319.633 305.745 C 320.261 306.289,327.740 310.393,327.869 310.264 C 328.048 310.085,320.263 305.600,319.773 305.600 C 319.605 305.600,319.542 305.665,319.633 305.745 M91.200 309.400 C 92.617 310.830,93.867 312.000,93.977 312.000 C 94.087 312.000,93.017 310.830,91.600 309.400 C 90.183 307.970,88.933 306.800,88.823 306.800 C 88.713 306.800,89.783 307.970,91.200 309.400 M309.200 309.800 C 308.228 310.790,307.523 311.600,307.633 311.600 C 307.743 311.600,308.628 310.790,309.600 309.800 C 310.572 308.810,311.277 308.000,311.167 308.000 C 311.057 308.000,310.172 308.810,309.200 309.800 M329.200 311.167 C 330.163 311.952,330.800 312.208,330.800 311.810 C 330.800 311.706,330.215 311.335,329.500 310.986 L 328.200 310.352 329.200 311.167 M303.774 314.872 C 302.349 316.372,302.317 316.449,303.436 315.684 C 304.836 314.725,305.803 313.670,305.531 313.398 C 305.430 313.297,304.640 313.961,303.774 314.872 M96.000 313.930 C 96.000 314.305,97.495 315.718,98.400 316.201 C 98.730 316.376,98.380 315.863,97.622 315.060 C 96.165 313.517,96.000 313.402,96.000 313.930 M334.800 314.343 C 334.800 314.754,336.012 315.322,336.292 315.042 C 336.389 314.944,336.093 314.664,335.634 314.418 C 335.175 314.173,334.800 314.139,334.800 314.343 M36.237 316.200 C 36.597 316.750,37.055 317.200,37.255 317.200 C 37.455 317.200,37.324 316.750,36.963 316.200 C 36.603 315.650,36.145 315.200,35.945 315.200 C 35.745 315.200,35.876 315.650,36.237 316.200 M99.600 317.138 C 99.600 317.669,101.175 318.958,101.467 318.667 C 101.611 318.523,101.402 318.044,101.002 317.602 C 100.248 316.769,99.600 316.554,99.600 317.138 M300.399 317.802 C 299.883 318.351,299.644 318.800,299.868 318.800 C 300.379 318.800,301.798 317.265,301.532 316.999 C 301.425 316.891,300.914 317.252,300.399 317.802 M339.600 317.224 C 339.600 317.457,339.780 317.536,340.000 317.400 C 340.220 317.264,340.400 317.331,340.400 317.549 C 340.400 317.768,340.805 318.072,341.300 318.227 C 341.795 318.381,342.290 318.634,342.400 318.788 C 342.743 319.269,348.152 322.169,347.877 321.725 C 347.734 321.493,347.073 321.079,346.409 320.804 C 345.744 320.528,345.200 320.160,345.200 319.986 C 345.200 319.687,340.338 316.800,339.835 316.800 C 339.706 316.800,339.600 316.991,339.600 317.224 M102.072 319.216 C 102.166 319.499,102.684 320.017,103.222 320.366 L 104.200 321.000 103.566 320.022 C 102.878 318.961,101.792 318.375,102.072 319.216 M297.802 319.998 C 297.403 320.439,297.262 320.800,297.489 320.800 C 297.992 320.800,298.990 319.657,298.721 319.388 C 298.615 319.282,298.202 319.556,297.802 319.998 M40.022 321.000 C 40.022 321.220,40.552 322.030,41.200 322.800 C 41.848 323.570,42.378 324.020,42.378 323.800 C 42.378 323.580,41.848 322.770,41.200 322.000 C 40.552 321.230,40.022 320.780,40.022 321.000 M105.200 322.020 C 106.896 323.381,107.884 323.724,106.400 322.436 C 105.630 321.768,104.820 321.221,104.600 321.220 C 104.380 321.219,104.650 321.579,105.200 322.020 M295.600 321.800 C 295.322 322.135,295.279 322.400,295.502 322.400 C 295.722 322.400,296.126 322.130,296.400 321.800 C 296.678 321.465,296.721 321.200,296.498 321.200 C 296.278 321.200,295.874 321.470,295.600 321.800 M348.400 322.179 C 348.400 322.289,348.940 322.659,349.600 323.000 C 350.260 323.341,350.800 323.531,350.800 323.421 C 350.800 323.311,350.260 322.941,349.600 322.600 C 348.940 322.259,348.400 322.069,348.400 322.179 M289.800 326.235 L 288.600 327.266 290.000 326.363 C 291.796 325.204,291.801 325.200,291.367 325.202 C 291.165 325.203,290.460 325.668,289.800 326.235 M355.344 326.154 C 356.066 326.735,356.062 326.792,355.207 328.076 L 354.327 329.400 355.363 328.278 C 356.632 326.904,356.654 326.551,355.500 325.992 C 354.657 325.583,354.647 325.594,355.344 326.154 M44.021 326.200 C 44.023 326.420,44.755 327.410,45.649 328.400 C 46.543 329.390,46.903 329.660,46.449 329.000 C 45.056 326.977,44.018 325.780,44.021 326.200 M47.600 330.730 C 47.600 330.912,48.079 331.497,48.663 332.030 L 49.727 333.000 48.788 331.700 C 47.812 330.348,47.600 330.175,47.600 330.730 M119.600 331.762 C 119.600 332.289,133.154 339.779,133.494 339.440 C 133.830 339.104,133.855 339.119,129.306 336.845 C 127.054 335.720,124.036 334.079,122.599 333.199 C 120.059 331.645,119.600 331.425,119.600 331.762 M350.629 333.519 L 349.487 335.000 350.823 333.713 C 351.558 333.005,352.072 332.338,351.965 332.231 C 351.858 332.125,351.257 332.704,350.629 333.519 M273.000 336.219 C 269.480 338.071,266.420 339.654,266.200 339.738 C 265.980 339.822,265.916 340.016,266.058 340.170 C 266.347 340.482,273.412 337.045,274.293 336.164 C 274.603 335.854,275.293 335.491,275.828 335.357 C 276.363 335.223,276.800 334.975,276.800 334.805 C 276.800 334.636,277.344 334.272,278.009 333.996 C 278.673 333.721,279.314 333.339,279.432 333.148 C 279.733 332.661,280.052 332.508,273.000 336.219 M50.000 333.522 C 50.000 333.698,50.663 334.463,51.473 335.222 L 52.946 336.600 51.639 334.900 C 50.332 333.198,50.000 332.920,50.000 333.522 M347.072 337.413 C 345.114 339.703,345.345 339.697,347.600 337.400 C 348.572 336.410,349.194 335.606,348.983 335.613 C 348.772 335.620,347.912 336.430,347.072 337.413 M55.271 339.500 C 58.533 342.982,64.988 349.145,65.176 348.957 C 65.415 348.718,54.328 337.600,53.851 337.600 C 53.653 337.600,54.292 338.455,55.271 339.500 M141.146 343.016 C 141.886 343.337,142.606 343.594,142.746 343.586 C 143.266 343.557,140.976 342.428,140.400 342.430 C 140.070 342.431,140.406 342.694,141.146 343.016 M341.201 343.398 C 340.686 343.948,340.385 344.518,340.533 344.667 C 340.826 344.959,342.800 343.272,342.800 342.730 C 342.800 342.120,342.146 342.393,341.201 343.398 M257.400 343.814 C 256.400 344.296,256.366 344.351,257.200 344.148 C 258.333 343.871,259.607 343.221,259.000 343.230 C 258.780 343.233,258.060 343.496,257.400 343.814 M335.640 348.824 C 334.673 349.698,333.964 350.497,334.065 350.599 C 334.167 350.700,335.041 349.977,336.008 348.992 C 338.179 346.780,337.994 346.696,335.640 348.824 M67.687 351.419 C 68.504 352.267,69.256 352.877,69.357 352.776 C 69.458 352.675,68.789 351.982,67.871 351.235 L 66.200 349.879 67.687 351.419 M331.643 352.423 C 331.117 352.861,330.771 353.305,330.875 353.408 C 330.979 353.512,331.486 353.148,332.001 352.598 C 333.124 351.404,332.962 351.325,331.643 352.423 M70.888 354.226 C 71.486 354.849,72.069 355.264,72.183 355.150 C 72.297 355.036,71.807 354.527,71.095 354.019 L 69.800 353.095 70.888 354.226 M184.400 353.753 C 184.400 354.108,186.018 354.294,186.223 353.962 C 186.346 353.763,185.987 353.600,185.424 353.600 C 184.861 353.600,184.400 353.669,184.400 353.753 M210.500 354.276 C 210.885 354.376,211.515 354.376,211.900 354.276 C 212.285 354.175,211.970 354.093,211.200 354.093 C 210.430 354.093,210.115 354.175,210.500 354.276 M327.800 355.653 C 325.334 357.655,325.388 357.602,325.833 357.592 C 326.208 357.583,330.363 354.032,330.000 354.030 C 329.890 354.029,328.900 354.759,327.800 355.653 M198.912 354.695 C 199.964 354.777,201.584 354.776,202.512 354.692 C 203.440 354.608,202.580 354.541,200.600 354.542 C 198.620 354.543,197.860 354.612,198.912 354.695 M73.362 356.342 C 73.781 356.814,74.287 357.200,74.486 357.200 C 75.049 357.200,74.450 356.454,73.478 355.944 C 72.606 355.487,72.605 355.490,73.362 356.342 M323.754 358.868 C 322.022 360.172,321.791 360.401,322.220 360.389 C 322.644 360.377,325.542 358.028,325.154 358.011 C 325.019 358.005,324.389 358.391,323.754 358.868 M77.600 359.800 C 77.874 360.130,78.278 360.400,78.498 360.400 C 78.721 360.400,78.678 360.135,78.400 359.800 C 78.126 359.470,77.722 359.200,77.502 359.200 C 77.279 359.200,77.322 359.465,77.600 359.800 M84.984 365.397 C 85.636 365.929,86.246 366.287,86.341 366.192 C 86.571 365.962,84.708 364.426,84.200 364.428 C 83.980 364.428,84.333 364.864,84.984 365.397 M311.446 367.796 C 309.197 369.352,308.015 370.508,309.800 369.406 C 312.106 367.982,314.000 366.693,314.000 366.547 C 314.000 366.180,313.254 366.545,311.446 367.796 M87.200 366.947 C 87.200 367.203,94.622 372.000,95.017 372.000 C 95.224 372.000,93.644 370.830,91.506 369.400 C 87.855 366.958,87.200 366.585,87.200 366.947 M305.600 371.613 C 304.170 372.484,303.156 373.198,303.348 373.199 C 303.760 373.200,308.400 370.419,308.400 370.171 C 308.400 369.909,308.372 369.923,305.600 371.613 M96.000 372.822 C 97.022 373.519,99.600 374.825,99.600 374.646 C 99.600 374.407,96.129 372.399,95.729 372.406 C 95.548 372.409,95.670 372.596,96.000 372.822 M301.065 374.247 C 300.440 374.586,300.015 374.948,300.120 375.053 C 300.224 375.157,300.915 374.874,301.655 374.423 C 303.213 373.473,302.748 373.335,301.065 374.247 M104.400 377.387 C 104.400 377.497,105.300 378.043,106.400 378.600 C 107.500 379.157,108.400 379.523,108.400 379.413 C 108.400 379.303,107.500 378.757,106.400 378.200 C 105.300 377.643,104.400 377.277,104.400 377.387 M110.600 380.674 C 111.260 381.027,111.890 381.447,112.000 381.606 C 112.354 382.118,116.472 384.062,116.706 383.827 C 117.023 383.510,116.986 383.486,113.309 381.646 C 110.170 380.076,108.081 379.326,110.600 380.674 M285.400 382.282 C 283.122 383.418,282.985 383.518,283.285 383.818 C 283.578 384.111,287.200 382.333,287.200 381.897 C 287.200 381.708,287.380 381.664,287.600 381.800 C 287.820 381.936,288.000 381.857,288.000 381.624 C 288.000 381.052,287.727 381.121,285.400 382.282 M117.450 383.920 C 117.286 384.184,117.239 384.400,117.344 384.400 C 117.449 384.400,117.819 384.509,118.167 384.643 C 118.521 384.779,118.800 384.680,118.800 384.419 C 118.800 384.163,118.635 384.055,118.434 384.179 C 118.233 384.303,117.996 384.188,117.907 383.922 C 117.782 383.547,117.680 383.547,117.450 383.920 M282.000 384.000 C 282.000 384.246,281.820 384.336,281.600 384.200 C 281.380 384.064,281.200 384.154,281.200 384.400 C 281.200 384.646,281.020 384.736,280.800 384.600 C 280.580 384.464,280.400 384.543,280.400 384.776 C 280.400 385.326,280.781 385.293,281.954 384.643 C 282.570 384.301,282.747 384.015,282.454 383.833 C 282.204 383.679,282.000 383.754,282.000 384.000 M122.000 385.943 C 122.000 386.354,123.212 386.922,123.492 386.642 C 123.589 386.544,123.293 386.264,122.834 386.018 C 122.375 385.773,122.000 385.739,122.000 385.943 M132.435 390.152 C 132.745 390.483,138.416 392.409,138.970 392.370 C 139.207 392.354,138.200 391.921,136.734 391.408 C 133.050 390.119,132.162 389.860,132.435 390.152 M193.111 401.493 C 194.051 401.578,195.491 401.577,196.311 401.491 C 197.130 401.405,196.360 401.336,194.600 401.337 C 192.840 401.339,192.170 401.409,193.111 401.493 M203.100 401.493 C 204.035 401.577,205.565 401.577,206.500 401.493 C 207.435 401.409,206.670 401.340,204.800 401.340 C 202.930 401.340,202.165 401.409,203.100 401.493 " stroke="none" fill="#cdcdcd" fill-rule="evenodd"></path><path id="path2" d="M249.000 6.962 C 252.520 7.899,255.850 8.795,256.400 8.952 C 257.115 9.157,257.227 9.128,256.794 8.852 C 256.078 8.396,244.021 5.187,243.178 5.228 C 242.860 5.244,245.480 6.024,249.000 6.962 M145.256 7.259 C 144.517 7.472,143.990 7.723,144.085 7.818 C 144.180 7.913,145.054 7.740,146.029 7.435 C 148.018 6.811,147.345 6.658,145.256 7.259 M142.200 8.214 C 141.195 8.698,141.163 8.753,142.000 8.551 C 142.550 8.419,143.171 8.150,143.380 7.955 C 143.898 7.471,143.614 7.533,142.200 8.214 M133.376 10.980 C 132.627 11.540,132.632 11.552,133.506 11.332 C 134.005 11.206,134.510 10.945,134.630 10.752 C 134.968 10.204,134.236 10.338,133.376 10.980 M295.600 25.358 C 295.600 25.453,296.414 25.987,297.409 26.543 C 298.405 27.099,299.112 27.382,298.982 27.171 C 298.723 26.752,295.600 25.077,295.600 25.358 M99.500 26.229 C 98.005 27.040,98.096 27.378,99.600 26.600 C 100.260 26.259,100.800 25.894,100.800 25.790 C 100.800 25.532,100.757 25.547,99.500 26.229 M194.926 46.314 C 194.665 46.479,197.140 46.622,200.425 46.630 C 203.710 46.639,206.173 46.503,205.899 46.329 C 205.263 45.925,195.558 45.912,194.926 46.314 M188.190 46.816 C 188.021 47.089,188.323 47.138,189.066 46.960 C 190.599 46.592,190.744 46.400,189.490 46.400 C 188.917 46.400,188.332 46.587,188.190 46.816 M210.433 46.544 C 210.905 46.950,212.843 47.193,212.610 46.816 C 212.468 46.587,211.883 46.400,211.310 46.400 C 210.736 46.400,210.342 46.465,210.433 46.544 M216.000 47.200 C 216.330 47.413,216.870 47.588,217.200 47.588 C 217.733 47.588,217.733 47.545,217.200 47.200 C 216.870 46.987,216.330 46.812,216.000 46.812 C 215.467 46.812,215.467 46.855,216.000 47.200 M67.178 49.500 L 65.800 51.000 67.300 49.622 C 68.125 48.863,68.800 48.188,68.800 48.122 C 68.800 47.816,68.462 48.104,67.178 49.500 M168.928 49.345 C 167.788 49.595,166.708 49.950,166.528 50.133 C 166.349 50.315,166.741 50.342,167.401 50.192 C 170.258 49.543,171.600 49.157,171.600 48.985 C 171.600 48.762,171.547 48.770,168.928 49.345 M231.000 49.600 C 232.101 50.073,232.492 50.073,232.200 49.600 C 232.064 49.380,231.558 49.213,231.076 49.228 C 230.231 49.255,230.229 49.269,231.000 49.600 M234.930 50.287 C 235.074 50.519,235.868 50.831,236.696 50.979 C 237.523 51.127,240.337 51.875,242.949 52.641 C 245.561 53.408,247.771 53.963,247.859 53.875 C 248.005 53.729,239.645 51.209,237.137 50.643 C 236.553 50.511,235.758 50.282,235.372 50.134 C 234.926 49.963,234.764 50.019,234.930 50.287 M159.700 51.612 C 158.361 52.151,158.611 52.424,160.000 51.940 C 160.660 51.710,161.200 51.449,161.200 51.361 C 161.200 51.124,160.713 51.205,159.700 51.612 M156.400 52.600 C 155.630 52.897,155.270 53.145,155.600 53.152 C 155.930 53.158,156.740 52.917,157.400 52.614 C 158.945 51.907,158.226 51.897,156.400 52.600 M62.575 53.700 L 61.400 55.000 62.700 53.825 C 63.912 52.730,64.184 52.400,63.875 52.400 C 63.806 52.400,63.221 52.985,62.575 53.700 M53.578 62.700 L 52.200 64.200 53.700 62.822 C 55.096 61.538,55.384 61.200,55.078 61.200 C 55.012 61.200,54.337 61.875,53.578 62.700 M346.200 64.400 C 347.059 65.280,347.852 66.000,347.962 66.000 C 348.072 66.000,347.459 65.280,346.600 64.400 C 345.741 63.520,344.948 62.800,344.838 62.800 C 344.728 62.800,345.341 63.520,346.200 64.400 M49.978 66.700 L 48.600 68.200 50.100 66.822 C 51.496 65.538,51.784 65.200,51.478 65.200 C 51.412 65.200,50.737 65.875,49.978 66.700 M350.000 68.600 C 350.746 69.370,351.447 70.000,351.557 70.000 C 351.667 70.000,351.146 69.370,350.400 68.600 C 349.654 67.830,348.953 67.200,348.843 67.200 C 348.733 67.200,349.254 67.830,350.000 68.600 M285.200 72.146 C 285.200 72.256,285.740 72.730,286.400 73.200 C 287.060 73.670,287.600 73.964,287.600 73.854 C 287.600 73.744,287.060 73.270,286.400 72.800 C 285.740 72.330,285.200 72.036,285.200 72.146 M305.800 88.800 C 307.328 90.340,308.669 91.600,308.779 91.600 C 308.889 91.600,307.728 90.340,306.200 88.800 C 304.672 87.260,303.331 86.000,303.221 86.000 C 303.111 86.000,304.272 87.260,305.800 88.800 M91.393 91.700 L 87.000 96.200 91.500 91.807 C 93.975 89.391,96.000 87.366,96.000 87.307 C 96.000 87.018,95.474 87.520,91.393 91.700 M312.200 95.200 C 313.283 96.300,314.260 97.200,314.370 97.200 C 314.480 97.200,313.683 96.300,312.600 95.200 C 311.517 94.100,310.540 93.200,310.430 93.200 C 310.320 93.200,311.117 94.100,312.200 95.200 M372.657 100.191 C 373.213 101.186,373.747 102.000,373.842 102.000 C 374.123 102.000,372.448 98.877,372.029 98.618 C 371.818 98.488,372.101 99.195,372.657 100.191 M390.463 140.600 C 390.462 140.820,390.703 141.630,391.000 142.400 C 391.297 143.170,391.545 143.530,391.552 143.200 C 391.558 142.870,391.317 142.060,391.014 141.400 C 390.712 140.740,390.464 140.380,390.463 140.600 M7.463 144.870 C 6.393 148.601,5.199 153.515,5.229 154.067 C 5.245 154.360,5.950 151.990,6.796 148.801 C 8.260 143.281,8.754 140.369,7.463 144.870 M391.656 144.400 C 391.656 144.730,391.811 145.360,392.000 145.800 C 392.217 146.304,392.344 146.378,392.344 146.000 C 392.344 145.670,392.189 145.040,392.000 144.600 C 391.783 144.096,391.656 144.022,391.656 144.400 M392.400 146.956 C 392.400 147.672,393.341 151.036,393.631 151.357 C 393.809 151.553,393.678 150.653,393.340 149.357 C 392.777 147.195,392.400 146.232,392.400 146.956 M344.878 148.000 C 344.990 148.330,345.668 150.366,346.383 152.525 C 347.098 154.684,347.753 156.381,347.838 156.295 C 348.033 156.101,345.311 147.967,344.942 147.639 C 344.794 147.508,344.765 147.670,344.878 148.000 M348.006 157.433 C 348.009 157.855,348.195 158.470,348.418 158.800 C 348.715 159.238,348.752 159.076,348.556 158.200 C 348.227 156.729,347.998 156.410,348.006 157.433 M51.246 159.267 C 51.221 159.634,51.096 160.264,50.970 160.667 C 50.752 161.362,50.763 161.363,51.197 160.687 C 51.448 160.296,51.573 159.666,51.473 159.287 C 51.311 158.668,51.288 158.666,51.246 159.267 M50.449 162.500 C 49.871 164.069,49.523 165.810,49.854 165.480 C 50.195 165.138,51.175 161.600,50.928 161.600 C 50.847 161.600,50.631 162.005,50.449 162.500 M49.240 167.440 C 49.010 168.273,48.894 169.027,48.982 169.115 C 49.070 169.203,49.330 168.593,49.560 167.760 C 49.790 166.927,49.906 166.173,49.818 166.085 C 49.730 165.997,49.470 166.607,49.240 167.440 M352.800 181.753 C 352.800 182.083,352.980 182.464,353.200 182.600 C 353.420 182.736,353.600 182.577,353.600 182.247 C 353.600 181.917,353.420 181.536,353.200 181.400 C 352.980 181.264,352.800 181.423,352.800 181.753 M353.628 190.076 C 353.696 191.344,354.342 192.254,354.372 191.124 C 354.387 190.532,354.220 189.936,354.000 189.800 C 353.780 189.664,353.613 189.788,353.628 190.076 M45.867 191.467 C 45.720 191.613,45.616 192.288,45.636 192.967 L 45.672 194.200 46.059 192.856 C 46.445 191.513,46.369 190.964,45.867 191.467 M0.101 193.000 C 0.105 193.880,0.187 194.193,0.283 193.695 C 0.379 193.198,0.375 192.478,0.275 192.095 C 0.175 191.713,0.096 192.120,0.101 193.000 M399.701 194.600 C 399.705 195.480,399.787 195.793,399.883 195.295 C 399.979 194.798,399.975 194.078,399.875 193.695 C 399.775 193.313,399.696 193.720,399.701 194.600 M0.093 206.000 C 0.093 206.770,0.175 207.085,0.276 206.700 C 0.376 206.315,0.376 205.685,0.276 205.300 C 0.175 204.915,0.093 205.230,0.093 206.000 M399.701 207.400 C 399.705 208.280,399.787 208.593,399.883 208.095 C 399.979 207.598,399.975 206.878,399.875 206.495 C 399.775 206.113,399.696 206.520,399.701 207.400 M45.634 208.800 C 45.622 209.350,45.787 210.070,46.000 210.400 C 46.509 211.187,46.509 209.784,46.000 208.600 C 45.685 207.867,45.654 207.884,45.634 208.800 M353.849 210.330 C 353.672 210.842,353.633 211.367,353.763 211.497 C 354.178 211.911,354.470 211.300,354.318 210.334 L 354.171 209.400 353.849 210.330 M46.006 214.700 C 46.003 215.195,46.180 215.600,46.400 215.600 C 46.901 215.600,46.901 215.176,46.400 214.400 C 46.086 213.915,46.011 213.972,46.006 214.700 M353.492 215.042 C 353.331 215.202,353.200 215.609,353.200 215.947 C 353.200 216.397,353.318 216.442,353.645 216.115 C 353.890 215.870,354.021 215.463,353.937 215.210 C 353.852 214.957,353.652 214.881,353.492 215.042 M51.444 243.000 C 51.773 244.471,52.002 244.790,51.994 243.767 C 51.991 243.345,51.805 242.730,51.582 242.400 C 51.285 241.962,51.248 242.124,51.444 243.000 M347.455 245.255 C 346.896 247.079,346.508 248.641,346.592 248.726 C 346.677 248.810,347.204 247.387,347.764 245.564 C 348.324 243.740,348.712 242.178,348.626 242.093 C 348.540 242.007,348.013 243.430,347.455 245.255 M52.063 245.000 C 52.062 245.220,52.303 246.030,52.600 246.800 C 52.897 247.570,53.145 247.930,53.152 247.600 C 53.158 247.270,52.917 246.460,52.614 245.800 C 52.312 245.140,52.064 244.780,52.063 245.000 M392.629 253.429 C 392.481 254.015,392.438 254.572,392.532 254.666 C 392.627 254.760,392.824 254.358,392.971 253.771 C 393.119 253.185,393.162 252.628,393.068 252.534 C 392.973 252.440,392.776 252.842,392.629 253.429 M8.006 255.833 C 8.009 256.255,8.195 256.870,8.418 257.200 C 8.715 257.638,8.752 257.476,8.556 256.600 C 8.227 255.129,7.998 254.810,8.006 255.833 M390.378 261.100 C 389.566 263.322,389.546 263.407,389.922 263.000 C 390.360 262.525,391.242 260.000,390.969 260.000 C 390.865 260.000,390.599 260.495,390.378 261.100 M86.600 305.200 C 87.459 306.080,88.252 306.800,88.362 306.800 C 88.472 306.800,87.859 306.080,87.000 305.200 C 86.141 304.320,85.348 303.600,85.238 303.600 C 85.128 303.600,85.741 304.320,86.600 305.200 M95.600 314.200 C 96.346 314.970,97.047 315.600,97.157 315.600 C 97.267 315.600,96.746 314.970,96.000 314.200 C 95.254 313.430,94.553 312.800,94.443 312.800 C 94.333 312.800,94.854 313.430,95.600 314.200 M348.175 335.700 L 347.000 337.000 348.300 335.825 C 349.015 335.179,349.600 334.594,349.600 334.525 C 349.600 334.216,349.270 334.488,348.175 335.700 M341.389 342.877 C 339.855 344.459,338.887 345.540,339.237 345.280 C 339.587 345.020,340.021 344.940,340.201 345.103 C 340.381 345.267,340.416 345.204,340.280 344.963 C 340.049 344.558,342.627 341.678,343.022 341.900 C 343.120 341.955,343.155 341.929,343.100 341.842 C 343.045 341.755,343.343 341.305,343.762 340.842 C 345.559 338.856,343.948 340.238,341.389 342.877 M63.600 347.000 C 64.346 347.770,65.047 348.400,65.157 348.400 C 65.267 348.400,64.746 347.770,64.000 347.000 C 63.254 346.230,62.553 345.600,62.443 345.600 C 62.333 345.600,62.854 346.230,63.600 347.000 M148.222 345.950 C 148.697 346.384,154.887 348.447,155.094 348.240 C 155.178 348.156,153.581 347.528,151.545 346.846 C 149.510 346.163,148.015 345.760,148.222 345.950 M244.600 348.586 C 243.055 349.293,243.774 349.303,245.600 348.600 C 246.370 348.303,246.730 348.055,246.400 348.048 C 246.070 348.042,245.260 348.283,244.600 348.586 M157.200 349.000 C 159.026 349.703,159.745 349.693,158.200 348.986 C 157.540 348.683,156.730 348.442,156.400 348.448 C 156.070 348.455,156.430 348.703,157.200 349.000 M333.775 350.100 L 332.600 351.400 333.900 350.225 C 334.615 349.579,335.200 348.994,335.200 348.925 C 335.200 348.616,334.870 348.888,333.775 350.100 M239.600 350.018 C 239.162 350.315,239.324 350.352,240.200 350.156 C 241.671 349.827,241.990 349.598,240.967 349.606 C 240.545 349.609,239.930 349.795,239.600 350.018 M68.800 351.800 C 69.546 352.570,70.247 353.200,70.357 353.200 C 70.467 353.200,69.946 352.570,69.200 351.800 C 68.454 351.030,67.753 350.400,67.643 350.400 C 67.533 350.400,68.054 351.030,68.800 351.800 M187.000 354.400 C 187.136 354.620,187.642 354.797,188.124 354.794 C 188.836 354.789,188.888 354.715,188.400 354.400 C 187.612 353.891,186.685 353.891,187.000 354.400 M213.200 354.400 C 212.712 354.715,212.764 354.789,213.476 354.794 C 213.958 354.797,214.464 354.620,214.600 354.400 C 214.915 353.891,213.988 353.891,213.200 354.400 M192.600 354.800 C 192.736 355.020,193.692 355.179,194.724 355.153 C 196.408 355.110,196.477 355.074,195.400 354.800 C 193.610 354.344,192.318 354.344,192.600 354.800 M205.800 354.800 C 204.723 355.074,204.792 355.110,206.476 355.153 C 207.508 355.179,208.464 355.020,208.600 354.800 C 208.882 354.344,207.590 354.344,205.800 354.800 M95.400 371.765 C 96.060 372.332,96.765 372.797,96.967 372.798 C 97.401 372.800,97.396 372.796,95.600 371.637 L 94.200 370.734 95.400 371.765 M303.896 372.150 C 301.975 373.331,301.438 373.889,303.000 373.081 C 304.254 372.433,305.945 371.226,305.600 371.225 C 305.490 371.225,304.723 371.641,303.896 372.150 M255.600 393.226 C 254.116 393.731,253.856 393.898,254.800 393.740 C 256.170 393.511,258.990 392.459,258.200 392.472 C 257.980 392.475,256.810 392.815,255.600 393.226 M144.200 393.600 C 144.640 393.789,145.270 393.944,145.600 393.944 C 145.978 393.944,145.904 393.817,145.400 393.600 C 144.960 393.411,144.330 393.256,144.000 393.256 C 143.622 393.256,143.696 393.383,144.200 393.600 M249.881 394.687 C 248.606 395.022,247.641 395.374,247.737 395.470 C 247.916 395.650,252.868 394.459,253.167 394.164 C 253.462 393.873,252.256 394.065,249.881 394.687 M148.600 394.800 C 149.040 394.989,149.670 395.144,150.000 395.144 C 150.378 395.144,150.304 395.017,149.800 394.800 C 149.360 394.611,148.730 394.456,148.400 394.456 C 148.022 394.456,148.096 394.583,148.600 394.800 " stroke="none" fill="#575757" fill-rule="evenodd"></path><path id="path3" d="M198.305 46.683 C 198.802 46.779,199.522 46.775,199.905 46.675 C 200.287 46.575,199.880 46.496,199.000 46.501 C 198.120 46.505,197.807 46.587,198.305 46.683 M91.578 91.900 L 90.200 93.400 91.700 92.022 C 93.096 90.738,93.384 90.400,93.078 90.400 C 93.012 90.400,92.337 91.075,91.578 91.900 M88.400 306.910 C 88.400 306.971,89.795 308.366,91.500 310.010 L 94.600 313.000 91.610 309.900 C 88.833 307.021,88.400 306.617,88.400 306.910 M309.586 309.900 L 307.400 312.200 309.700 310.014 C 311.837 307.982,312.183 307.600,311.886 307.600 C 311.824 307.600,310.789 308.635,309.586 309.900 M196.900 355.076 C 197.285 355.176,197.915 355.176,198.300 355.076 C 198.685 354.975,198.370 354.893,197.600 354.893 C 196.830 354.893,196.515 354.975,196.900 355.076 " stroke="none" fill="#7c7c7c" fill-rule="evenodd"></path><path id="path4" d="M196.300 0.295 C 197.455 0.376,199.345 0.376,200.500 0.295 C 201.655 0.214,200.710 0.148,198.400 0.148 C 196.090 0.148,195.145 0.214,196.300 0.295 M115.400 17.786 C 114.740 18.088,114.481 18.350,114.824 18.368 C 115.166 18.385,115.796 18.136,116.224 17.813 C 117.188 17.083,116.951 17.076,115.400 17.786 M130.300 63.429 C 128.805 64.240,128.896 64.578,130.400 63.800 C 131.060 63.459,131.600 63.094,131.600 62.990 C 131.600 62.732,131.557 62.747,130.300 63.429 M269.200 63.400 C 269.750 63.714,270.380 63.972,270.600 63.972 C 270.820 63.972,270.550 63.714,270.000 63.400 C 269.450 63.086,268.820 62.828,268.600 62.828 C 268.380 62.828,268.650 63.086,269.200 63.400 M301.200 84.911 C 301.200 84.987,301.785 85.478,302.500 86.001 C 303.304 86.590,303.584 86.687,303.233 86.255 C 302.700 85.599,301.200 84.607,301.200 84.911 M310.000 93.325 C 310.000 93.394,310.585 93.979,311.300 94.625 L 312.600 95.800 311.425 94.500 C 310.330 93.288,310.000 93.016,310.000 93.325 M62.865 131.017 C 62.195 132.488,62.323 132.802,63.047 131.465 C 63.386 130.840,63.588 130.254,63.496 130.163 C 63.405 130.071,63.121 130.456,62.865 131.017 M353.668 192.000 C 353.688 193.039,354.318 194.746,354.332 193.800 C 354.338 193.360,354.189 192.640,354.000 192.200 C 353.789 191.710,353.661 191.632,353.668 192.000 M45.720 197.200 C 45.720 198.410,45.795 198.905,45.887 198.300 C 45.978 197.695,45.978 196.705,45.887 196.100 C 45.795 195.495,45.720 195.990,45.720 197.200 M45.720 204.400 C 45.720 205.610,45.795 206.105,45.887 205.500 C 45.978 204.895,45.978 203.905,45.887 203.300 C 45.795 202.695,45.720 203.190,45.720 204.400 M353.850 208.450 C 353.709 209.153,353.669 209.802,353.759 209.892 C 353.850 209.983,354.048 209.491,354.200 208.800 C 354.352 208.109,354.393 207.459,354.291 207.358 C 354.189 207.256,353.991 207.747,353.850 208.450 M346.575 337.700 L 345.400 339.000 346.700 337.825 C 347.415 337.179,348.000 336.594,348.000 336.525 C 348.000 336.216,347.670 336.488,346.575 337.700 M344.401 340.198 C 343.886 340.748,343.539 341.264,343.632 341.346 C 343.724 341.428,344.219 340.978,344.730 340.347 C 345.876 338.935,345.674 338.844,344.401 340.198 M335.775 348.500 L 334.600 349.800 335.900 348.625 C 336.615 347.979,337.200 347.394,337.200 347.325 C 337.200 347.016,336.870 347.288,335.775 348.500 M199.700 355.087 C 200.305 355.178,201.295 355.178,201.900 355.087 C 202.505 354.995,202.010 354.920,200.800 354.920 C 199.590 354.920,199.095 354.995,199.700 355.087 M198.500 401.487 C 199.105 401.578,200.095 401.578,200.700 401.487 C 201.305 401.395,200.810 401.320,199.600 401.320 C 198.390 401.320,197.895 401.395,198.500 401.487 " stroke="none" fill="#848484" fill-rule="evenodd"></path></g></svg>
