<?xml version="1.0" encoding="UTF-8"?>
<!-- Generator: Adobe Illustrator 27.2.0, SVG Export Plug-In . SVG Version: 6.00 Build 0)  -->
<svg version="1.1" id="Layer_1" xmlns="http://www.w3.org/2000/svg" xmlns:xlink="http://www.w3.org/1999/xlink" x="0px" y="0px" viewBox="0 0 187 79.47" style="enable-background:new 0 0 187 79.47;" xml:space="preserve">
<style type="text/css">
	.st0{fill:#969EAA;}
	.st1{fill:#FF709D;}
	.st2{fill:#4DABFF;}
</style>
<g>
	<path class="st0" d="M27.72,75.13c-0.53-0.44-1.41-0.79-2.62-1.06c-0.97-0.21-1.67-0.46-2.07-0.76c-0.39-0.29-0.59-0.64-0.59-1.08   c0-0.48,0.2-0.86,0.61-1.15c0.42-0.3,1-0.45,1.75-0.45c0.78,0,1.4,0.17,1.84,0.52c0.44,0.34,0.68,0.83,0.71,1.45l0,0.09h1.01l0-0.1   c-0.04-0.91-0.37-1.64-1-2.15c-0.62-0.51-1.48-0.76-2.56-0.76c-1.03,0-1.86,0.23-2.46,0.69c-0.61,0.46-0.92,1.09-0.92,1.87   c0,0.72,0.28,1.3,0.82,1.73c0.53,0.43,1.41,0.78,2.61,1.04c0.94,0.2,1.63,0.45,2.04,0.75c0.4,0.29,0.6,0.65,0.6,1.11   c0,0.51-0.21,0.9-0.64,1.2c-0.44,0.3-1.05,0.45-1.81,0.45c-0.82,0-1.48-0.19-1.97-0.55c-0.49-0.36-0.75-0.87-0.79-1.52l0-0.09   h-1.01l0,0.1c0.02,0.61,0.19,1.14,0.5,1.6c0.31,0.45,0.76,0.81,1.32,1.05c0.56,0.24,1.21,0.37,1.94,0.37c1.06,0,1.91-0.24,2.54-0.7   c0.63-0.47,0.96-1.12,0.96-1.92C28.53,76.16,28.26,75.58,27.72,75.13z"/>
	<path class="st0" d="M35.41,69.85l-4.06,9.45h1.1l0.99-2.33h4.87l1,2.33h1.08l-4.06-9.45H35.41z M37.91,76.04h-4.06l2.03-4.76   L37.91,76.04z"/>
	<g>
		<polygon class="st0" points="48.78,67.12 47.7,67.12 46.76,69.11 47.71,69.11   "/>
		<path class="st0" d="M50.05,75.52c0,0.96-0.24,1.7-0.7,2.21c-0.46,0.51-1.14,0.76-2,0.76c-0.86,0-1.54-0.26-2-0.76    c-0.47-0.51-0.7-1.25-0.7-2.21v-5.67h-1.01v5.7c0,1.21,0.33,2.17,0.99,2.86c0.66,0.69,1.58,1.04,2.72,1.04    c1.15,0,2.06-0.35,2.72-1.04c0.66-0.69,0.99-1.65,0.99-2.86v-5.7h-1.01V75.52z"/>
	</g>
	<path class="st0" d="M61.85,70.44c-0.76-0.39-1.67-0.59-2.68-0.59h-3.12v9.45h3.12c1.02,0,1.92-0.2,2.68-0.59   c0.77-0.39,1.37-0.95,1.78-1.66c0.41-0.71,0.62-1.54,0.62-2.48c0-0.94-0.21-1.77-0.62-2.48C63.22,71.38,62.62,70.83,61.85,70.44z    M59.17,78.35h-2.1v-7.54h2.07c0.83,0,1.56,0.16,2.17,0.47c0.61,0.31,1.08,0.75,1.41,1.31c0.33,0.57,0.49,1.24,0.49,1.99   c0,0.76-0.16,1.43-0.49,1.99c-0.32,0.56-0.79,1.01-1.4,1.31C60.72,78.19,59.99,78.35,59.17,78.35z"/>
	<polygon class="st0" points="69.71,74.95 74.17,74.95 74.17,74.02 69.71,74.02 69.71,70.79 74.52,70.79 74.52,69.85 68.69,69.85    68.69,79.3 74.68,79.3 74.68,78.36 69.71,78.36  "/>
	<path class="st0" d="M90.91,70.44c-0.76-0.39-1.67-0.59-2.68-0.59H85.1v9.45h3.12c1.02,0,1.92-0.2,2.68-0.59   c0.77-0.39,1.37-0.95,1.78-1.66c0.41-0.71,0.62-1.54,0.62-2.48c0-0.94-0.21-1.77-0.62-2.48C92.27,71.38,91.67,70.83,90.91,70.44z    M88.23,78.35h-2.1v-7.54h2.07c0.83,0,1.56,0.16,2.17,0.47c0.61,0.31,1.08,0.75,1.41,1.31c0.33,0.57,0.49,1.24,0.49,1.99   c0,0.76-0.16,1.43-0.49,1.99c-0.32,0.56-0.79,1.01-1.4,1.31C89.77,78.19,89.05,78.35,88.23,78.35z"/>
	<rect x="97.74" y="69.85" class="st0" width="1.02" height="9.45"/>
	<path class="st0" d="M107.76,74.24v0.95H112c-0.06,0.61-0.26,1.17-0.57,1.65c-0.33,0.51-0.78,0.91-1.34,1.2   c-0.56,0.29-1.2,0.43-1.92,0.43c-0.77,0-1.46-0.17-2.05-0.49c-0.59-0.32-1.05-0.79-1.38-1.38c-0.33-0.59-0.5-1.28-0.5-2.03   c0-0.77,0.17-1.45,0.5-2.04c0.33-0.59,0.79-1.05,1.38-1.37c0.59-0.33,1.28-0.49,2.05-0.49c0.83,0,1.56,0.19,2.18,0.58   c0.62,0.38,1.08,0.92,1.37,1.59l0.02,0.06h1.1l-0.04-0.12c-0.32-0.92-0.9-1.68-1.74-2.24c-0.83-0.56-1.82-0.85-2.93-0.85   c-0.94,0-1.79,0.21-2.53,0.63c-0.75,0.42-1.34,1-1.76,1.74c-0.42,0.74-0.63,1.59-0.63,2.53c0,0.94,0.21,1.79,0.64,2.53   c0.42,0.74,1.02,1.33,1.76,1.74c0.75,0.42,1.6,0.63,2.55,0.63c0.97,0,1.84-0.22,2.59-0.66c0.75-0.44,1.33-1.05,1.74-1.83   c0.41-0.77,0.61-1.66,0.6-2.65l0-0.09H107.76z"/>
	<rect x="117.48" y="69.85" class="st0" width="1.02" height="9.45"/>
	<polygon class="st0" points="122.58,70.81 125.88,70.81 125.88,79.3 126.89,79.3 126.89,70.81 130.21,70.81 130.21,69.85    122.58,69.85  "/>
	<path class="st0" d="M136.06,69.85L132,79.3h1.1l0.99-2.33h4.87l1,2.33h1.08l-4.06-9.45H136.06z M138.56,76.04h-4.06l2.03-4.76   L138.56,76.04z"/>
	<polygon class="st0" points="145.88,78.35 145.88,69.85 144.86,69.85 144.86,79.3 150.75,79.3 150.75,78.35  "/>
	<path class="st1" d="M166.8,24.55h-4.36v-4.36c0-0.32-0.26-0.59-0.59-0.59h-3.55c-0.32,0-0.59,0.26-0.59,0.59v4.36h-4.36   c-0.32,0-0.59,0.26-0.59,0.59v3.55c0,0.32,0.26,0.59,0.59,0.59h4.36v4.36c0,0.32,0.26,0.59,0.59,0.59h3.55   c0.32,0,0.59-0.26,0.59-0.59v-4.36h4.36c0.32,0,0.59-0.26,0.59-0.59v-3.55C167.39,24.82,167.12,24.55,166.8,24.55z"/>
	<path class="st1" d="M171.12,26.01c-0.44-5.39-4.73-9.69-10.12-10.12c-0.49-0.04-0.9-0.39-0.91-0.82c0-0.91,0-1.83,0-2.74   c-0.01-0.43,0.57-0.79,1.26-0.73c7.48,0.61,13.45,6.58,14.06,14.06c0.06,0.7-0.3,1.27-0.73,1.26c-0.91,0-1.83,0-2.74,0   C171.5,26.91,171.16,26.5,171.12,26.01z"/>
	<path class="st1" d="M176.91,26c-0.46-8.44-7.49-15.46-15.93-15.91c-0.5-0.03-0.91-0.37-0.91-0.81c0-0.91,0-1.83,0-2.74   c0-0.43,0.51-0.79,1.15-0.75c10.63,0.57,19.42,9.34,19.99,19.97c0.03,0.63-0.32,1.15-0.75,1.15c-0.91,0-1.83,0-2.74,0   C177.29,26.91,176.94,26.5,176.91,26z"/>
	<path class="st1" d="M182.7,26c-0.47-11.5-10.22-21.23-21.71-21.7c-0.5-0.02-0.91-0.37-0.91-0.8c0-0.91,0-1.83,0-2.74   c0-0.43,0.49-0.79,1.09-0.76C174.9,0.56,186.44,12.09,187,25.82c0.02,0.6-0.33,1.09-0.76,1.09c-0.91,0-1.83,0-2.74,0   C183.07,26.91,182.72,26.5,182.7,26z"/>
	<path class="st2" d="M2.59,13.13c-0.73,0-1.35,0.24-1.84,0.72C0.25,14.33,0,14.96,0,15.72v33.76c0,0.73,0.25,1.35,0.75,1.84   c0.5,0.5,1.11,0.75,1.84,0.75c0.76,0,1.39-0.25,1.87-0.75c0.48-0.5,0.72-1.11,0.72-1.84V15.72c0-0.76-0.24-1.39-0.72-1.87   C3.98,13.37,3.36,13.13,2.59,13.13z"/>
	<path class="st2" d="M30.74,26.02c-1.81-0.98-3.86-1.47-6.16-1.47c-2.19,0-4.17,0.48-5.93,1.45c-0.96,0.53-1.81,1.16-2.54,1.88   v-0.54c0-0.76-0.23-1.38-0.7-1.84c-0.47-0.47-1.08-0.7-1.84-0.7c-0.73,0-1.34,0.23-1.82,0.7c-0.48,0.47-0.72,1.08-0.72,1.84v22.24   c0,0.73,0.24,1.34,0.72,1.82c0.48,0.48,1.09,0.72,1.82,0.72c0.76,0,1.38-0.24,1.84-0.72c0.47-0.48,0.7-1.09,0.7-1.82V35.52   c0-1.23,0.33-2.32,1-3.27c0.66-0.95,1.56-1.7,2.69-2.27c1.13-0.56,2.39-0.85,3.79-0.85c1.53,0,2.88,0.29,4.06,0.87   c1.18,0.58,2.12,1.47,2.82,2.67c0.7,1.2,1.05,2.74,1.05,4.64v12.27c0,0.73,0.24,1.34,0.72,1.82c0.48,0.48,1.09,0.72,1.82,0.72   c0.73,0,1.34-0.24,1.82-0.72c0.48-0.48,0.72-1.09,0.72-1.82V37.31c0-2.76-0.52-5.09-1.57-6.98C33.98,28.44,32.55,27,30.74,26.02z"/>
	<path class="st2" d="M53.5,47.09h-1.7c-1.06,0-1.96-0.45-2.69-1.35c-0.73-0.9-1.1-2.01-1.1-3.34V30.08h4.24c0.7,0,1.26-0.2,1.7-0.6   c0.43-0.4,0.65-0.9,0.65-1.5c0-0.66-0.22-1.2-0.65-1.6c-0.43-0.4-1-0.6-1.7-0.6h-4.24v-7.18c0-0.73-0.23-1.33-0.7-1.8   c-0.47-0.47-1.06-0.7-1.8-0.7c-0.73,0-1.33,0.23-1.8,0.7c-0.47,0.47-0.7,1.06-0.7,1.8v7.18h-2.29c-0.7,0-1.26,0.2-1.7,0.6   c-0.43,0.4-0.65,0.93-0.65,1.6c0,0.6,0.22,1.1,0.65,1.5c0.43,0.4,1,0.6,1.7,0.6h2.29V42.4c0,1.83,0.38,3.47,1.15,4.94   c0.76,1.46,1.81,2.62,3.14,3.47c1.33,0.85,2.83,1.27,4.49,1.27h0.9c0.86,0,1.57-0.23,2.12-0.7c0.55-0.47,0.82-1.06,0.82-1.8   c0-0.73-0.21-1.33-0.62-1.8C54.61,47.32,54.1,47.09,53.5,47.09z"/>
	<path class="st2" d="M77.49,26.32c-1.86-1.15-4.09-1.72-6.68-1.72c-2.63,0-4.95,0.59-6.98,1.77c-2.03,1.18-3.62,2.81-4.76,4.89   c-1.15,2.08-1.72,4.48-1.72,7.21c0,2.69,0.61,5.08,1.82,7.16c1.21,2.08,2.89,3.71,5.04,4.89c2.14,1.18,4.6,1.77,7.36,1.77   c1.53,0,3.13-0.28,4.81-0.85c1.68-0.56,3.08-1.3,4.21-2.19c0.56-0.43,0.83-0.95,0.8-1.55c-0.03-0.6-0.33-1.15-0.9-1.65   c-0.43-0.37-0.94-0.54-1.52-0.52c-0.58,0.02-1.12,0.21-1.62,0.57c-0.67,0.5-1.54,0.94-2.62,1.32c-1.08,0.38-2.14,0.57-3.17,0.57   c-1.89,0-3.57-0.42-5.04-1.25c-1.46-0.83-2.61-1.96-3.44-3.39c-0.83-1.43-1.25-3.06-1.25-4.89c0-1.83,0.35-3.47,1.05-4.91   c0.7-1.45,1.72-2.58,3.07-3.42c1.35-0.83,2.97-1.25,4.86-1.25c1.66,0,3.07,0.38,4.24,1.15c1.16,0.77,2.06,1.8,2.69,3.12   c0.45,0.93,0.74,1.96,0.89,3.07H67.54h-1.23h-0.27c-0.69,0-1.25,0.56-1.25,1.25v1.5c0,0.69,0.56,1.25,1.25,1.25h1.5   c0.01,0,0.02,0,0.03,0h13.36c0.66,0,1.21-0.21,1.65-0.62c0.43-0.42,0.65-0.94,0.65-1.57c0-2.63-0.49-4.94-1.47-6.96   C80.77,29.04,79.35,27.46,77.49,26.32z"/>
	<path class="st2" d="M106.51,26.37c-2.06-1.18-4.42-1.77-7.08-1.77c-2.69,0-5.07,0.59-7.13,1.77c-2.06,1.18-3.68,2.81-4.86,4.89   c-1.18,2.08-1.77,4.48-1.77,7.21c0,2.69,0.55,5.08,1.65,7.16c1.1,2.08,2.6,3.71,4.51,4.89c1.91,1.18,4.11,1.77,6.61,1.77   c2.29,0,4.32-0.59,6.08-1.77c1.53-1.02,2.77-2.39,3.74-4.09v2.47c0,2.16-0.4,3.99-1.2,5.49c-0.8,1.5-1.87,2.63-3.22,3.39   c-1.35,0.76-2.82,1.15-4.41,1.15c-1.73,0-3.27-0.32-4.64-0.95c-1.36-0.63-2.49-1.51-3.39-2.64c-0.4-0.53-0.92-0.86-1.57-1   c-0.65-0.13-1.27,0-1.87,0.4c-0.53,0.37-0.86,0.85-0.97,1.45c-0.12,0.6,0.04,1.18,0.47,1.75c1.43,1.8,3.17,3.16,5.24,4.09   c2.06,0.93,4.27,1.4,6.63,1.4c2.73,0,5.13-0.63,7.21-1.89c2.08-1.26,3.7-2.97,4.86-5.11c1.16-2.14,1.75-4.53,1.75-7.16V38.46   c0-2.73-0.59-5.13-1.77-7.21C110.19,29.18,108.57,27.55,106.51,26.37z M104.01,46.59c-1.33,0.8-2.86,1.2-4.59,1.2   c-1.73,0-3.26-0.4-4.59-1.2c-1.33-0.8-2.38-1.89-3.14-3.29c-0.77-1.4-1.15-3.01-1.15-4.84c0-1.83,0.38-3.45,1.15-4.86   c0.76-1.41,1.81-2.52,3.14-3.32c1.33-0.8,2.86-1.2,4.59-1.2c1.73,0,3.26,0.4,4.59,1.2c1.33,0.8,2.37,1.9,3.12,3.32   c0.75,1.41,1.12,3.03,1.12,4.86c0,1.83-0.37,3.44-1.12,4.84C106.38,44.69,105.34,45.79,104.01,46.59z"/>
	<path class="st2" d="M136.03,27.79c0.23-0.9-0.14-1.67-1.12-2.32c-0.98-0.65-2.47-0.97-4.46-0.97c-1.99,0-3.82,0.47-5.49,1.4   c-1.12,0.63-2.08,1.41-2.89,2.33v-0.93c0-0.83-0.21-1.45-0.62-1.87c-0.42-0.42-1.04-0.62-1.87-0.62c-0.8,0-1.41,0.22-1.85,0.65   c-0.43,0.43-0.65,1.05-0.65,1.84v22.29c0,0.83,0.22,1.45,0.65,1.87c0.43,0.42,1.05,0.62,1.85,0.62c0.83,0,1.45-0.22,1.87-0.65   c0.42-0.43,0.62-1.05,0.62-1.84V35.02c0-1.53,0.49-2.79,1.47-3.79c0.98-1,2.32-1.68,4.01-2.04c1.7-0.37,3.61-0.33,5.73,0.1   c0.43,0.1,0.83,0.12,1.2,0.05c0.37-0.07,0.69-0.22,0.97-0.47C135.74,28.61,135.93,28.25,136.03,27.79z"/>
	<path class="st2" d="M169.18,47.76c-0.42-0.47-0.92-0.7-1.52-0.7h-1.2c-1.06,0-1.96-0.45-2.69-1.35c-0.52-0.63-1.14-1.37-1.3-2.22   c0,0-0.04-6.34-0.04-7.27h-4.72c0,0.92-0.02,2.23-0.02,3.06c0,1.76-0.19,2.5-0.95,3.92c-0.77,1.41-1.81,2.53-3.14,3.34   c-1.33,0.82-2.84,1.22-4.54,1.22c-1.66,0-3.17-0.41-4.51-1.22c-1.35-0.81-2.41-1.93-3.19-3.34c-0.78-1.41-1.17-3-1.17-4.76   c0-1.8,0.39-3.4,1.17-4.81c0.78-1.41,1.86-2.43,3.2-3.25c1.19-0.73,2.46-0.96,3.65-1.04c0.68-0.05,1.26-0.05,2.56-0.05v-4.72   c-0.99-0.01-1.45-0.01-2.52,0.05c-1.93,0.11-4.11,0.57-6.18,1.79c-2.08,1.21-3.72,2.87-4.94,4.96c-1.21,2.09-1.82,4.46-1.82,7.08   c0,2.63,0.56,4.98,1.67,7.06c1.11,2.08,2.63,3.72,4.56,4.94c1.93,1.21,4.11,1.82,6.53,1.82c2.43,0,4.6-0.61,6.53-1.82   c1.57-0.99,2.87-2.27,3.9-3.84c0.1,0.25,0.21,0.49,0.34,0.72c0.76,1.46,1.81,2.62,3.14,3.47c1.33,0.85,2.83,1.27,4.49,1.27h0.4   c0.86,0,1.57-0.23,2.12-0.7c0.55-0.47,0.82-1.06,0.82-1.8C169.81,48.82,169.6,48.22,169.18,47.76z"/>
</g>
</svg>