<?xml version="1.0" encoding="UTF-8" standalone="no"?>
<svg
   version="1.1"
   width="880.02008"
   height="283.07297"
   style="clip-rule:evenodd;fill-rule:evenodd;image-rendering:optimizeQuality;shape-rendering:geometricPrecision;text-rendering:geometricPrecision"
   id="svg118"
   sodipodi:docname="AAAAA.svg"
   inkscape:version="1.2 (1:1.2.1+202207142221+cd75a1ee6d)"
   xmlns:inkscape="http://www.inkscape.org/namespaces/inkscape"
   xmlns:sodipodi="http://sodipodi.sourceforge.net/DTD/sodipodi-0.dtd"
   xmlns="http://www.w3.org/2000/svg"
   xmlns:svg="http://www.w3.org/2000/svg">
  <defs
     id="defs122" />
  <sodipodi:namedview
     id="namedview120"
     pagecolor="#ffffff"
     bordercolor="#000000"
     borderopacity="0.25"
     inkscape:showpageshadow="2"
     inkscape:pageopacity="0.0"
     inkscape:pagecheckerboard="0"
     inkscape:deskcolor="#d1d1d1"
     showgrid="false"
     inkscape:zoom="1.1671875"
     inkscape:cx="582.59705"
     inkscape:cy="531.61981"
     inkscape:window-width="1920"
     inkscape:window-height="1016"
     inkscape:window-x="0"
     inkscape:window-y="0"
     inkscape:window-maximized="1"
     inkscape:current-layer="svg118" />
  <g
     id="g8"
     transform="translate(-8.5,-2.4840667)">
    <path
       style="opacity:0.972"
       fill="#1d90ff"
       d="m 856.5,2.5 c 10.733,-0.17926 21.233,1.15407 31.5,4 0.832,10.0166 0.666,20.0166 -0.5,30 -9.285,-1.1396 -18.619,-1.3063 -28,-0.5 -8.091,1.7589 -13.258,6.5922 -15.5,14.5 -0.5,14.3295 -0.667,28.6628 -0.5,43 13.667,0 27.333,0 41,0 0,8.333 0,16.667 0,25 -13.667,0 -27.333,0 -41,0 0,53.667 0,107.333 0,161 -11.667,0 -23.333,0 -35,0 0,-53.667 0,-107.333 0,-161 -10,0 -20,0 -30,0 0,-8.333 0,-16.667 0,-25 10,0 20,0 30,0 0.141,-17.009 0.641,-34.009 1.5,-51 3.509,-19.8429 15.009,-32.3429 34.5,-37.5 4.165,-0.70536 8.165,-1.53869 12,-2.5 z"
       id="path6" />
  </g>
  <g
     id="g12"
     transform="translate(-8.5,-2.4840667)">
    <path
       style="opacity:0.981"
       fill="#1e8fff"
       d="m 381.5,11.5 c 13.667,0 27.333,0 41,0 0,13 0,26 0,39 -13.667,0 -27.333,0 -41,0 0,-13 0,-26 0,-39 z"
       id="path10" />
  </g>
  <g
     id="g40"
     transform="translate(-8.5,-2.4840667)">
    <path
       style="opacity:0.98"
       fill="#1e90ff"
       d="m 273.5,88.5 c 23.632,-3.5114 44.632,2.1553 63,17 10.222,10.145 15.722,22.479 16.5,37 0.5,45.999 0.667,91.999 0.5,138 -11.333,0 -22.667,0 -34,0 0.167,-38.001 0,-76.001 -0.5,-114 0.779,-12.332 -1.554,-23.999 -7,-35 -7.904,-11.035 -18.737,-16.368 -32.5,-16 -22.498,1.334 -37.331,12.667 -44.5,34 -1.929,10.566 -2.929,21.233 -3,32 -0.5,32.998 -0.667,65.998 -0.5,99 -11.333,0 -22.667,0 -34,0 0,-62.667 0,-125.333 0,-188 11,0 22,0 33,0 -0.201,8.708 0.299,17.375 1.5,26 9.88,-15.519 23.714,-25.5186 41.5,-30 z"
       id="path38" />
  </g>
  <g
     id="g44"
     transform="translate(-8.5,-2.4840667)">
    <path
       style="opacity:0.982"
       fill="#1e90ff"
       d="m 513.5,88.5 c 27.88,-3.9932 50.713,4.6735 68.5,26 7.581,11.742 11.747,24.575 12.5,38.5 -11.662,0.5 -23.329,0.667 -35,0.5 -2.705,-31.505 -19.372,-43.672 -50,-36.5 -10.559,4.893 -18.059,12.726 -22.5,23.5 -9.629,29.88 -9.962,59.88 -1,90 11.986,26.996 31.486,34.496 58.5,22.5 10.898,-9.298 16.232,-21.132 16,-35.5 11.667,0 23.333,0 35,0 -2.388,34.311 -20.055,56.144 -53,65.5 -25.514,5.564 -48.847,0.897 -70,-14 -13.307,-12.775 -21.807,-28.275 -25.5,-46.5 -5.718,-28.453 -4.052,-56.453 5,-84 11.174,-28.358 31.674,-45.0251 61.5,-50 z"
       id="path42" />
  </g>
  <g
     id="g48"
     transform="translate(-8.5,-2.4840667)">
    <path
       style="opacity:0.983"
       fill="#1e90ff"
       d="m 679.5,88.5 c 20.554,-2.0757 39.888,1.7576 58,11.5 19.476,14.102 30.309,33.268 32.5,57.5 1.075,11.977 1.575,23.977 1.5,36 -41.67,-0.008 -83.337,0.325 -125,1 -1.474,15.464 1.359,30.131 8.5,44 11.056,16.587 26.556,23.087 46.5,19.5 19.932,-4.442 30.266,-16.942 31,-37.5 12.333,0 24.667,0 37,0 -3.927,32.422 -21.593,52.922 -53,61.5 -62.459,11.85 -97.626,-13.65 -105.5,-76.5 -1.849,-20.318 -0.183,-40.318 5,-60 9.778,-31.957 30.945,-50.9567 63.5,-57 z m 5,26 c 23.549,-1.912 39.382,8.088 47.5,30 1.974,7.88 3.141,15.88 3.5,24 -29.667,0 -59.333,0 -89,0 -0.408,-18.629 6.259,-34.129 20,-46.5 5.649,-3.598 11.649,-6.098 18,-7.5 z"
       id="path46" />
  </g>
  <g
     id="g52"
     transform="translate(-8.5,-2.4840667)">
    <path
       style="opacity:0.985"
       fill="#1e90ff"
       d="m 8.5,92.5 c 11.6667,0 23.3333,0 35,0 0.6044,44.331 1.1044,88.664 1.5,133 5.3251,26.918 21.4918,37.751 48.5,32.5 15.5,-4.833 25.667,-15 30.5,-30.5 2.106,-7.194 3.439,-14.528 4,-22 0.5,-37.665 0.667,-75.332 0.5,-113 11.667,0 23.333,0 35,0 0,62.667 0,125.333 0,188 -11,0 -22,0 -33,0 0.441,-8.776 -0.059,-17.442 -1.5,-26 -11.736,18.364 -28.569,28.531 -50.5,30.5 -34.172,3.674 -56.3387,-10.826 -66.5,-43.5 -0.9929,-3.942 -1.6596,-7.942 -2,-12 C 9.75132,183.827 9.25132,138.16 8.5,92.5 Z"
       id="path50" />
  </g>
  <g
     id="g56"
     transform="translate(-8.5,-2.4840667)">
    <path
       style="opacity:0.969"
       fill="#1e90ff"
       d="m 384.5,92.5 c 11.667,0 23.333,0 35,0 0,62.333 0,124.667 0,187 -11.667,0 -23.333,0 -35,0 0,-62.333 0,-124.667 0,-187 z"
       id="path54" />
  </g>
</svg>
