<?xml version="1.0" standalone="no"?>
<!DOCTYPE svg PUBLIC "-//W3C//DTD SVG 20010904//EN"
 "http://www.w3.org/TR/2001/REC-SVG-20010904/DTD/svg10.dtd">
<svg version="1.0" xmlns="http://www.w3.org/2000/svg"
 width="40.000000pt" height="49.000000pt" viewBox="0 0 40.000000 49.000000"
 preserveAspectRatio="xMidYMid meet">

<g transform="translate(0.000000,49.000000) scale(0.100000,-0.100000)"
fill="#000000" stroke="none">
<path d="M154 365 c-15 -23 -15 -27 0 -50 22 -33 60 -33 82 0 15 23 15 27 0
50 -10 15 -26 25 -41 25 -15 0 -31 -10 -41 -25z"/>
<path d="M155 250 c-29 -11 -48 -37 -41 -55 9 -24 159 -17 164 7 2 11 -9 25
-30 38 -35 21 -60 24 -93 10z"/>
</g>
</svg>
